<svg title="tatsuya" viewBox="0 0 1200 155" xmlns="http://www.w3.org/2000/svg">
  <path fill="white" d="M173.777 2.15278V49.5139H113.157V152.847H60.6198V49.5139H0V2.15278H173.777Z" />
  <path fill="white" d="M282.837 152.847L273.138 125.722H212.922L203.223 152.847H145.432L204.031 2.15278H282.029L340.628 152.847H282.837ZM226.663 86.9722H259.397L243.03 40.9028L226.663 86.9722Z" />
  <path fill="white" d="M484.177 2.15278V49.5139H423.557V152.847H371.02V49.5139H310.4V2.15278H484.177Z" />
  <path fill="white" d="M486.221 99.6736H538.758C538.758 106.993 545.224 111.944 578.565 111.944C609.683 111.944 614.331 109.792 614.331 104.194C614.331 97.7361 609.683 96.875 576.545 95.7986C512.692 93.6458 488.242 82.4514 488.242 47.3611C488.242 14.2083 518.754 0 574.524 0C629.688 0 660.806 14.2083 660.806 52.7431H608.269C608.269 44.7778 596.145 43.0556 570.483 43.0556C545.831 43.0556 540.779 44.3472 540.779 50.1597C540.779 55.9722 545.83 55.7569 576.545 57.0486C632.315 59.4167 666.868 63.5069 666.868 102.903C666.868 144.451 634.537 155 576.545 155C518.552 155 486.221 144.451 486.221 99.6736Z" />
  <path fill="white" d="M850.761 77.2847C850.761 129.597 823.886 155 761.852 155C699.615 155 672.943 129.813 672.943 77.2847V2.15278H725.48V77.2847C725.48 93.4306 730.936 107.639 761.852 107.639C792.768 107.639 798.223 93.2153 798.223 77.2847V2.15278H850.761V77.2847Z" />
  <path fill="white" d="M926.769 103.333L854.833 2.15278H915.453L953.038 58.125L990.622 2.15278H1051.24L979.306 103.333V152.847H926.769V103.333Z" />
  <path fill="white" d="M1142.21 152.847L1132.51 125.722H1072.29L1062.6 152.847H1004.8L1063.4 2.15278H1141.4L1200 152.847H1142.21ZM1086.03 86.9722H1118.77L1102.4 40.9028L1086.03 86.9722Z" />
</svg>