<svg width="52" height="52" viewBox="0 0 52 52" fill="none" xmlns="http://www.w3.org/2000/svg">
<g filter="url(#filter0_d_2048_699)">
<rect x="4" width="44" height="44" rx="6" fill="white"/>
</g>
<path d="M25.9283 5C24.8308 5.00048 23.823 5.60592 23.3072 6.57459C22.7914 7.54326 22.8516 8.71739 23.4638 9.62822L24.7327 8.3611C24.6908 8.2347 24.6696 8.10233 24.6701 7.96915C24.6701 7.27725 25.231 6.71635 25.9229 6.71635C26.6148 6.71635 27.1757 7.27725 27.1757 7.96915C27.1757 8.66105 26.6148 9.22195 25.9229 9.22195C25.7903 9.22225 25.6586 9.20109 25.5327 9.15931L24.2656 10.4264C25.3208 11.1421 26.7151 11.1042 27.7299 10.3322C28.7446 9.56029 29.1533 8.22666 28.7451 7.01873C28.337 5.81081 27.2033 4.99831 25.9283 5Z" fill="#34A853"/>
<path d="M24.747 13.6533C24.749 12.6503 24.4241 11.674 23.8217 10.8721L22.1752 12.5168C22.6901 13.4586 22.5048 14.6293 21.7242 15.3661L22.619 17.5531C23.9449 16.6992 24.7464 15.2304 24.747 13.6533Z" fill="#FBBC04"/>
<path d="M20.1456 16.0139H20.1027C19.0927 16.014 18.1944 15.3721 17.8674 14.4166C17.5403 13.4611 17.8568 12.4033 18.6549 11.7845C19.4531 11.1657 20.5563 11.1226 21.4002 11.6774L23.0307 10.047C21.4453 8.76169 19.2064 8.66255 17.5136 9.80268C15.8207 10.9428 15.0711 13.0548 15.6662 15.007C16.2614 16.9593 18.0617 18.2939 20.1027 18.2958C20.4176 18.296 20.7318 18.2648 21.0405 18.2028L20.1456 16.0139Z" fill="#EA4335"/>
<path d="M25.9909 17.9057C24.9604 17.9047 23.9353 18.0548 22.9484 18.3514L24.2531 21.5389C24.821 21.3981 25.404 21.3272 25.9891 21.3277C29.3795 21.3287 32.2971 23.7243 32.9578 27.0497C33.6184 30.3751 31.8382 33.7041 28.7057 35.0011C25.5732 36.298 21.9607 35.2017 20.0774 32.3825C18.1941 29.5633 18.5643 25.8064 20.9618 23.4091C21.462 22.9104 22.0331 22.4883 22.6566 22.1563L21.3663 18.9778C16.5563 21.3334 14.2789 26.9228 16.0729 31.9692C17.867 37.0157 23.1615 39.9132 28.379 38.7041C33.5966 37.4949 37.0768 32.5638 36.4682 27.2427C35.8595 21.9215 31.3557 17.9037 25.9998 17.9039L25.9909 17.9057Z" fill="#4285F4"/>
<defs>
<filter id="filter0_d_2048_699" x="0" y="0" width="52" height="52" filterUnits="userSpaceOnUse" color-interpolation-filters="sRGB">
<feFlood flood-opacity="0" result="BackgroundImageFix"/>
<feColorMatrix in="SourceAlpha" type="matrix" values="0 0 0 0 0 0 0 0 0 0 0 0 0 0 0 0 0 0 127 0" result="hardAlpha"/>
<feOffset dy="4"/>
<feGaussianBlur stdDeviation="2"/>
<feComposite in2="hardAlpha" operator="out"/>
<feColorMatrix type="matrix" values="0 0 0 0 0 0 0 0 0 0 0 0 0 0 0 0 0 0 0.07 0"/>
<feBlend mode="normal" in2="BackgroundImageFix" result="effect1_dropShadow_2048_699"/>
<feBlend mode="normal" in="SourceGraphic" in2="effect1_dropShadow_2048_699" result="shape"/>
</filter>
</defs>
</svg>
