<svg width="136" height="45" viewBox="0 0 136 45" fill="none" xmlns="http://www.w3.org/2000/svg">
<g clip-path="url(#clip0_119_544)">
<path d="M27.1154 26.1131L27.0757 26.0719C27.0276 26.0213 26.9751 25.963 26.9199 25.8975C26.1026 24.9342 25.6526 23.7105 25.6502 22.4447C25.6479 21.1789 26.0934 19.9535 26.9071 18.9872C26.9631 18.921 27.0155 18.862 27.0644 18.8114C27.3944 18.4899 27.5844 18.0502 27.5927 17.5883C27.6011 17.1265 27.4271 16.6801 27.1089 16.3468C26.7907 16.0134 26.354 15.8202 25.8944 15.8093C25.4348 15.7984 24.9896 15.9707 24.6561 16.2886C24.6419 16.3028 24.6291 16.3164 24.615 16.3284C24.5647 16.3776 24.5066 16.4295 24.4414 16.485C23.4775 17.3021 22.2569 17.7502 20.9957 17.7502C19.7346 17.7502 18.514 17.3021 17.5501 16.485C17.4849 16.4302 17.4268 16.3783 17.3765 16.3292C17.3631 16.3171 17.3496 16.3035 17.3354 16.2893C17.0019 15.9714 16.5567 15.7991 16.0971 15.81C15.6374 15.8209 15.2008 16.0141 14.8826 16.3475C14.5643 16.6809 14.3904 17.1272 14.3987 17.5891C14.4071 18.0509 14.597 18.4906 14.9271 18.8122C15.1353 19.0299 15.4484 19.3971 15.7941 19.8149C16.4039 20.552 16.7378 21.4803 16.7378 22.4388C16.7378 23.3973 16.4039 24.3256 15.7941 25.0627C15.4456 25.484 15.129 25.8527 14.9179 26.0726C14.9058 26.0861 14.8924 26.0996 14.8782 26.1138C14.5643 26.4439 14.3914 26.8843 14.3966 27.3407C14.4018 27.7972 14.5845 28.2335 14.9058 28.5563C15.2271 28.8791 15.6614 29.0627 16.1157 29.0679C16.57 29.0731 17.0084 28.8994 17.3368 28.584C17.351 28.5698 17.3645 28.5563 17.3779 28.5442L17.4233 28.5001C18.3745 27.5542 19.6588 27.0237 20.9972 27.0237C22.3355 27.0237 23.6198 27.5542 24.5711 28.5001L24.6164 28.5442C24.6306 28.5563 24.6433 28.5698 24.6575 28.584C24.986 28.8994 25.4243 29.0731 25.8786 29.0679C26.3329 29.0627 26.7672 28.8791 27.0885 28.5563C27.4098 28.2335 27.5926 27.7972 27.5977 27.3407C27.6029 26.8843 27.43 26.4439 27.1161 26.1138L27.1154 26.1131Z" fill="white"/>
<path d="M28.3888 11.9859C26.6923 8.68659 27.7895 4.57459 30.9005 2.56912C32.0938 1.79831 33.4868 1.39817 34.9053 1.41879C36.3238 1.4394 37.7047 1.87986 38.8753 2.68503C40.0458 3.4902 40.9541 4.62434 41.4863 5.94552C42.0186 7.2667 42.1512 8.71624 41.8676 10.1128C41.8299 10.3024 41.7501 10.481 41.6344 10.6354C41.5186 10.7899 41.3697 10.9162 41.1988 11.005C41.0279 11.0938 40.8393 11.1429 40.6469 11.1486C40.4546 11.1543 40.2634 11.1165 40.0876 11.0379C39.8211 10.9185 39.6031 10.7113 39.4697 10.4506C39.3363 10.1898 39.2954 9.89118 39.3538 9.60393C39.5583 8.5996 39.4281 7.55557 38.9834 6.63295C38.5386 5.71032 37.8041 4.96038 36.893 4.49886C35.9819 4.03733 34.945 3.88987 33.9422 4.07923C32.9395 4.26859 32.0266 4.78424 31.3445 5.54662C30.6624 6.309 30.2489 7.27572 30.168 8.29762C30.087 9.31951 30.343 10.3398 30.8965 11.201C31.45 12.0622 32.2702 12.7164 33.2305 13.0628C34.1908 13.4091 35.2379 13.4283 36.2102 13.1174C36.4876 13.0303 36.7863 13.041 37.0568 13.1478C37.3274 13.2545 37.5535 13.451 37.6977 13.7045C37.7935 13.8707 37.8512 14.0564 37.8664 14.2478C37.8816 14.4393 37.854 14.6318 37.7856 14.8111C37.7173 14.9905 37.6098 15.1522 37.4712 15.2845C37.3325 15.4168 37.1662 15.5162 36.9844 15.5755C35.3603 16.0911 33.6072 16.0136 32.0345 15.3568C30.4618 14.7 29.1706 13.5061 28.3888 11.9859Z" fill="#F16622"/>
<path d="M41.8105 34.5955C42.606 38.257 40.4647 41.9776 36.9138 43.1155C35.5501 43.5541 34.0879 43.5787 32.7104 43.1864C31.3328 42.7941 30.101 42.0023 29.1692 40.91C28.2373 39.8178 27.6469 38.4736 27.4717 37.0459C27.2965 35.6181 27.5444 34.1701 28.1843 32.8832C28.2709 32.7087 28.3953 32.556 28.5484 32.4363C28.7016 32.3166 28.8795 32.233 29.0691 32.1916C29.2587 32.1502 29.4552 32.1521 29.6439 32.1972C29.8327 32.2422 30.009 32.3293 30.1598 32.4519C30.3887 32.6382 30.5473 32.8975 30.6096 33.1867C30.6718 33.476 30.6338 33.7779 30.5019 34.0425C30.0415 34.9678 29.8969 36.0196 30.0905 37.0356C30.2841 38.0517 30.8051 38.9755 31.5732 39.6645C32.3412 40.3535 33.3136 40.7694 34.3403 40.848C35.3669 40.9266 36.3908 40.6636 37.2539 40.0995C38.1171 39.5355 38.7714 38.7017 39.1161 37.7269C39.4607 36.7521 39.4765 35.6904 39.1609 34.7057C38.8454 33.721 38.2161 32.8679 37.3701 32.2782C36.5241 31.6886 35.5085 31.395 34.4799 31.4428C34.1871 31.4545 33.899 31.3654 33.6633 31.1903C33.4276 31.0153 33.2584 30.7647 33.1837 30.4799C33.1331 30.2928 33.1248 30.0967 33.1596 29.9059C33.1943 29.7152 33.2711 29.5347 33.3843 29.3777C33.4976 29.2207 33.6444 29.0912 33.814 28.9986C33.9837 28.9061 34.1717 28.853 34.3645 28.8431C36.0813 28.7666 37.7699 29.3018 39.1322 30.3542C40.4945 31.4067 41.4431 32.9088 41.8105 34.5955Z" fill="#F16622"/>
<path d="M5.57151 29.2195C9.19606 28.3364 12.9474 30.3981 14.1622 33.9414C14.6303 35.3013 14.6887 36.7697 14.33 38.1628C13.9713 39.5558 13.2116 40.8116 12.1459 41.7728C11.0802 42.7341 9.75588 43.358 8.33884 43.5666C6.9218 43.7752 5.47501 43.5591 4.17964 42.9454C4.00388 42.8627 3.84886 42.7414 3.72603 42.5904C3.60321 42.4394 3.51572 42.2626 3.47002 42.0731C3.42433 41.8836 3.4216 41.6862 3.46203 41.4955C3.50247 41.3048 3.58504 41.1256 3.70364 40.9713C3.88375 40.7372 4.13798 40.5719 4.4243 40.5026C4.71061 40.4334 5.01187 40.4644 5.27826 40.5905C6.20962 41.0316 7.25958 41.1525 8.26611 40.9345C9.27264 40.7166 10.1798 40.1718 10.8476 39.3845C11.5154 38.5971 11.9068 37.6107 11.9612 36.5777C12.0157 35.5447 11.7303 34.5223 11.1491 33.6684C10.5678 32.8145 9.72304 32.1766 8.74508 31.8529C7.76711 31.5293 6.71032 31.538 5.73778 31.8778C4.76524 32.2175 3.93101 32.8693 3.36381 33.7327C2.79661 34.5961 2.52797 35.623 2.59935 36.655C2.61805 36.949 2.53625 37.2405 2.3675 37.4814C2.19874 37.7222 1.95316 37.8979 1.67143 37.9794C1.48651 38.0341 1.29177 38.0465 1.10145 38.0158C0.911135 37.9851 0.730067 37.912 0.571503 37.8018C0.412939 37.6917 0.280893 37.5474 0.185031 37.3794C0.0891699 37.2113 0.0319196 37.0239 0.0174719 36.8308C-0.0980394 35.1079 0.395883 33.3995 1.41207 32.0069C2.42827 30.6143 3.9014 29.6271 5.57151 29.2195Z" fill="#F16622"/>
<path d="M12.1838 14.0732C9.42629 16.596 5.15008 16.596 2.39183 14.0732C1.33192 13.1056 0.579634 11.8454 0.229158 10.4504C-0.121319 9.0553 -0.0544123 7.58736 0.421501 6.23031C0.897414 4.87327 1.76119 3.68743 2.90468 2.82124C4.04818 1.95505 5.42058 1.44701 6.85008 1.36071C7.04386 1.34849 7.23788 1.38018 7.41782 1.45344C7.59776 1.5267 7.75901 1.63966 7.88965 1.78397C8.02029 1.92827 8.11698 2.10023 8.17256 2.28713C8.22815 2.47403 8.24122 2.67109 8.21079 2.86375C8.16451 3.15559 8.02065 3.42289 7.80292 3.62159C7.58519 3.8203 7.30658 3.93855 7.013 3.95687C5.98513 4.01819 5.00592 4.41768 4.22647 5.09368C3.44702 5.76968 2.91067 6.68462 2.70018 7.6973C2.4897 8.70998 2.61677 9.76411 3.0618 10.697C3.50683 11.6299 4.24508 12.3898 5.16262 12.8593C6.08016 13.3288 7.12598 13.4818 8.13871 13.2948C9.15143 13.1079 10.0748 12.5912 10.7662 11.8246C11.4576 11.058 11.8788 10.0841 11.9646 9.05322C12.0504 8.0223 11.7961 6.99165 11.241 6.12033C11.0845 5.8713 11.0171 5.57609 11.0501 5.28341C11.0831 4.99074 11.2144 4.71811 11.4224 4.51054C11.5584 4.37312 11.7234 4.26804 11.9051 4.20301C12.0869 4.13798 12.2808 4.11463 12.4727 4.1347C12.6646 4.15476 12.8495 4.21772 13.014 4.31896C13.1786 4.4202 13.3184 4.55715 13.4234 4.71977C14.3471 6.17557 14.7293 7.9124 14.5025 9.62375C14.2757 11.3351 13.4545 12.9109 12.1838 14.0732Z" fill="#F16622"/>
<path d="M79.1763 2.32287C79.302 2.19553 79.4007 2.04379 79.4662 1.87691C79.5317 1.71002 79.5627 1.53148 79.5574 1.35216C79.5631 1.17304 79.5322 0.994651 79.4665 0.828005C79.4009 0.661359 79.302 0.51 79.1759 0.383279C79.0497 0.256557 78.8991 0.157165 78.7332 0.0912416C78.5674 0.0253187 78.3898 -0.00573471 78.2115 -1.2049e-08H65.8787C65.7004 -0.00573471 65.5229 0.0253187 65.357 0.0912416C65.1912 0.157165 65.0405 0.256557 64.9144 0.383279C64.7883 0.51 64.6893 0.661359 64.6237 0.828005C64.5581 0.994651 64.5272 1.17304 64.5329 1.35216C64.5272 1.53128 64.5581 1.70968 64.6237 1.87632C64.6893 2.04297 64.7883 2.19433 64.9144 2.32105C65.0405 2.44777 65.1912 2.54716 65.357 2.61309C65.5229 2.67901 65.7004 2.71006 65.8787 2.70433H70.621V17.1227C70.6168 17.3152 70.6508 17.5067 70.7212 17.6858C70.7917 17.865 70.897 18.0282 71.031 18.1659C71.1651 18.3036 71.3251 18.413 71.5018 18.4877C71.6785 18.5624 71.8683 18.6008 72.06 18.6008C72.2517 18.6008 72.4415 18.5624 72.6182 18.4877C72.7949 18.413 72.9549 18.3036 73.089 18.1659C73.223 18.0282 73.3283 17.865 73.3987 17.6858C73.4692 17.5067 73.5032 17.3152 73.499 17.1227V2.70433H78.2143C78.392 2.7093 78.5688 2.67806 78.7342 2.6125C78.8995 2.54694 79.0499 2.44842 79.1763 2.32287Z" fill="white"/>
<path d="M93.8083 16.5462L87.3107 0.967864C87.0749 0.335194 86.6088 0 85.955 0C85.3402 0 84.8741 0.328789 84.6049 0.956478L78.1258 16.5007C78.0457 16.6987 78.0018 16.9097 77.9962 17.1234C77.9925 17.4992 78.1356 17.8616 78.395 18.1325C78.5234 18.2734 78.6804 18.3851 78.8553 18.4601C79.0303 18.5351 79.2191 18.5717 79.4093 18.5673C79.6867 18.5685 79.958 18.4862 80.1885 18.3311C80.4302 18.1705 80.6217 17.9445 80.741 17.6792L81.9905 14.5834H89.945L91.1754 17.6742C91.2809 17.9476 91.4715 18.1795 91.7187 18.3353C91.9525 18.4861 92.2243 18.5666 92.5021 18.5673C92.6919 18.5715 92.8805 18.5368 93.0564 18.4653C93.2324 18.3939 93.3921 18.2872 93.5257 18.1517C93.6599 18.0219 93.7662 17.8658 93.8382 17.6931C93.9102 17.5204 93.9463 17.3348 93.9443 17.1476C93.9363 16.9404 93.8901 16.7365 93.8083 16.5462ZM82.9942 12.1133L86.0032 4.74894L88.9449 12.1133H82.9942Z" fill="white"/>
<path d="M105.967 -1.2049e-08H93.6326C93.4544 -0.00573471 93.2768 0.0253187 93.1109 0.0912416C92.9451 0.157165 92.7944 0.256557 92.6683 0.383279C92.5422 0.51 92.4432 0.661359 92.3776 0.828005C92.312 0.994651 92.2811 1.17304 92.2868 1.35216C92.2811 1.53128 92.312 1.70968 92.3776 1.87632C92.4432 2.04297 92.5422 2.19433 92.6683 2.32105C92.7944 2.44777 92.9451 2.54716 93.1109 2.61309C93.2768 2.67901 93.4544 2.71006 93.6326 2.70433H98.3714V17.1227C98.3671 17.3152 98.4012 17.5067 98.4716 17.6858C98.542 17.865 98.6473 18.0282 98.7814 18.1659C98.9154 18.3036 99.0755 18.413 99.2522 18.4877C99.4289 18.5624 99.6187 18.6008 99.8104 18.6008C100.002 18.6008 100.192 18.5624 100.369 18.4877C100.545 18.413 100.705 18.3036 100.839 18.1659C100.973 18.0282 101.079 17.865 101.149 17.6858C101.22 17.5067 101.254 17.3152 101.249 17.1227V2.70433H105.967C106.145 2.70996 106.323 2.67883 106.488 2.61287C106.654 2.54691 106.805 2.44752 106.931 2.32082C107.057 2.19412 107.156 2.0428 107.222 1.8762C107.287 1.7096 107.318 1.53126 107.313 1.35216C107.318 1.17307 107.287 0.994724 107.222 0.828126C107.156 0.661527 107.057 0.510211 106.931 0.383511C106.805 0.256811 106.654 0.157415 106.488 0.0914548C106.323 0.0254948 106.145 -0.00563016 105.967 -1.2049e-08Z" fill="white"/>
<path d="M64.0855 13.237C64.0855 14.3756 63.771 15.362 63.1597 16.179C62.5322 17.0005 61.6891 17.6299 60.7252 17.9966C59.7031 18.3977 58.6144 18.5994 57.5171 18.5908C56.0296 18.5908 54.6505 18.2464 53.4237 17.5667C52.8814 17.2714 52.3842 16.8992 51.9475 16.4615C51.9149 16.4281 51.8767 16.3953 51.8441 16.3626C51.8115 16.3299 51.769 16.2772 51.7364 16.2345C51.5828 16.034 51.4883 15.7943 51.4635 15.5425C51.4388 15.2907 51.4849 15.037 51.5965 14.8102C51.7082 14.5834 51.8809 14.3927 52.0951 14.2596C52.3093 14.1265 52.5563 14.0565 52.8081 14.0575C53.1462 14.0543 53.4725 14.1817 53.7198 14.4134C53.7998 14.4888 54.0158 14.7628 54.251 14.9421C54.4817 15.1196 54.7286 15.2747 54.9884 15.4054C55.7724 15.8015 56.6397 16.0021 57.5171 15.9904C58.5938 15.9904 59.5104 15.7449 60.2527 15.2496C60.9674 14.772 61.3195 14.1351 61.3195 13.3081C61.3195 12.5104 61.0191 11.8442 60.4029 11.2735C59.7866 10.7027 58.8077 10.3412 57.5171 10.2095C55.6138 10.0252 54.0909 9.45376 52.9909 8.51436C51.8774 7.56002 51.3086 6.34165 51.3086 4.90195C51.3086 3.8864 51.6047 2.99397 52.1827 2.25242C52.7607 1.51086 53.5434 0.953631 54.5351 0.569332C55.5133 0.191438 56.6225 0 57.8302 0C59.1605 0 60.2973 0.278973 61.2189 0.826243C61.3315 0.892428 61.4441 0.968576 61.5575 1.0433C61.6134 1.08173 61.6701 1.11945 61.7218 1.15717L61.736 1.1714C61.8821 1.29348 61.9995 1.44646 62.08 1.61943C62.1604 1.7924 62.2019 1.98108 62.2013 2.172C62.2017 2.34539 62.1681 2.51715 62.1023 2.67747C62.0366 2.83779 61.94 2.98351 61.8182 3.10631C61.6964 3.22912 61.5516 3.32659 61.3923 3.39316C61.2329 3.45973 61.0621 3.49409 60.8895 3.49427C60.6695 3.49562 60.4527 3.4405 60.2598 3.33415C60.2223 3.31494 60.189 3.29145 60.1521 3.26797C60.0629 3.21601 59.9687 3.16406 59.8653 3.10215C59.2986 2.77193 58.5584 2.60398 57.6751 2.60398C56.58 2.60398 55.6918 2.81748 55.0245 3.23665C54.387 3.63803 54.0746 4.2095 54.0746 4.97454C54.0746 5.69261 54.358 6.2776 54.9395 6.76438C55.5211 7.25115 56.6225 7.59062 58.1922 7.75145C60.0388 7.93506 61.4958 8.50653 62.5208 9.45091C63.5592 10.4074 64.0855 11.6827 64.0855 13.237Z" fill="white"/>
<path d="M121.48 13.237C121.48 14.3756 121.165 15.362 120.554 16.179C119.926 17.0003 119.083 17.6297 118.12 17.9966C117.097 18.3982 116.007 18.6002 114.909 18.5915C113.422 18.5915 112.042 18.2471 110.815 17.5674C110.273 17.2721 109.776 16.8999 109.34 16.4622C109.307 16.4288 109.269 16.396 109.236 16.3633C109.204 16.3306 109.161 16.2779 109.128 16.2352C108.974 16.0347 108.88 15.795 108.855 15.5432C108.83 15.2914 108.876 15.0377 108.988 14.8109C109.1 14.5841 109.272 14.3934 109.487 14.2603C109.701 14.1272 109.948 14.0572 110.2 14.0582C110.538 14.0547 110.864 14.1821 111.111 14.4141C111.191 14.4895 111.407 14.7635 111.643 14.9428C111.874 15.1203 112.121 15.2754 112.381 15.4061C113.165 15.8024 114.032 16.003 114.909 15.9911C115.985 15.9911 116.902 15.7456 117.645 15.2503C118.359 14.7727 118.712 14.1358 118.712 13.3088C118.712 12.5111 118.411 11.845 117.795 11.2742C117.18 10.7034 116.202 10.3433 114.909 10.2117C113.005 10.0274 111.483 9.45589 110.383 8.51649C109.269 7.56215 108.7 6.34378 108.7 4.90408C108.7 3.88854 108.997 2.99611 109.575 2.25455C110.153 1.513 110.937 0.953631 111.929 0.569332C112.906 0.191438 114.016 0 115.223 0C116.553 0 117.691 0.278973 118.612 0.826243C118.725 0.892428 118.838 0.968576 118.95 1.0433C119.007 1.08173 119.063 1.11945 119.115 1.15717C119.12 1.16155 119.125 1.16631 119.129 1.1714C119.275 1.29348 119.393 1.44646 119.473 1.61943C119.553 1.7924 119.595 1.98108 119.594 2.172C119.595 2.34536 119.561 2.5171 119.496 2.67742C119.43 2.83773 119.333 2.98346 119.212 3.10627C119.09 3.22908 118.945 3.32657 118.786 3.39315C118.627 3.45972 118.456 3.49409 118.283 3.49427C118.063 3.49568 117.846 3.44056 117.654 3.33415C117.616 3.31494 117.583 3.29145 117.545 3.26797C117.456 3.21601 117.362 3.16406 117.262 3.10215C116.695 2.77193 115.956 2.60398 115.072 2.60398C113.977 2.60398 113.088 2.81748 112.421 3.23665C111.784 3.63803 111.472 4.2095 111.472 4.97454C111.472 5.69261 111.755 6.2776 112.337 6.76438C112.918 7.25115 114.019 7.59062 115.589 7.75145C117.436 7.93506 118.893 8.50653 119.917 9.45091C120.953 10.4074 121.48 11.6827 121.48 13.237Z" fill="white"/>
<path d="M62.213 27.6197C60.8303 26.8305 59.2309 26.4305 57.4593 26.4305H53.2448C53.0669 26.4268 52.89 26.4585 52.7244 26.5238C52.5588 26.5892 52.4078 26.6869 52.28 26.8113C52.1498 26.9388 52.0474 27.0922 51.9795 27.2616C51.9116 27.4311 51.8795 27.6129 51.8855 27.7955V43.6343C51.8831 43.8143 51.9166 43.993 51.9841 44.1598C52.0515 44.3265 52.1516 44.478 52.2783 44.6053C52.405 44.7326 52.5558 44.8331 52.7218 44.9009C52.8878 44.9687 53.0656 45.0024 53.2448 45H57.4593C59.2302 45 60.831 44.5993 62.213 43.8108C63.5827 43.035 64.7078 41.8881 65.46 40.5009C66.2285 39.0975 66.6188 37.4827 66.6188 35.7035C66.6188 33.9244 66.2285 32.3132 65.4593 30.9169C64.7048 29.5349 63.5802 28.3927 62.213 27.6197ZM57.4593 42.5497H54.6033V28.8808H57.4593C58.7152 28.8808 59.8535 29.1726 60.8423 29.7497C61.8265 30.3213 62.6305 31.1599 63.1621 32.1694C63.7139 33.2042 63.9944 34.3926 63.9944 35.7021C63.9944 37.0116 63.7111 38.2043 63.1614 39.2462C62.6332 40.2614 61.829 41.1052 60.8423 41.6794C59.8549 42.2573 58.7159 42.5497 57.4593 42.5497Z" fill="white"/>
<path d="M77.9794 37.2912C78.8718 36.865 79.6303 36.2003 80.1717 35.3698C80.744 34.4916 81.0337 33.4725 81.0337 32.3409C81.0337 31.1973 80.7723 30.1639 80.2545 29.2715C79.7412 28.3805 78.9859 27.6548 78.0771 27.1792C77.1506 26.6867 76.0888 26.4369 74.9215 26.4369H70.7331C70.5562 26.4327 70.3801 26.4636 70.2151 26.5278C70.05 26.5921 69.8992 26.6884 69.7712 26.8113C69.641 26.9388 69.5386 27.0921 69.4707 27.2616C69.4028 27.4311 69.3707 27.6129 69.3767 27.7955V43.6343C69.38 43.9049 69.4623 44.1686 69.6135 44.3926C69.7646 44.6166 69.9779 44.7911 70.2269 44.8943C70.4759 44.9976 70.7496 45.025 71.014 44.9734C71.2784 44.9217 71.5219 44.7931 71.7142 44.6036C71.8381 44.4753 71.9355 44.3235 72.0006 44.1572C72.0658 43.9908 72.0975 43.8131 72.0938 43.6343V37.9581H75.2629L79.2253 44.346C79.5016 44.7801 79.8961 45 80.3983 45C80.7943 45 81.1152 44.879 81.3525 44.6399C81.4686 44.5237 81.5599 44.385 81.6208 44.2322C81.6817 44.0793 81.7109 43.9156 81.7066 43.751C81.7037 43.449 81.6153 43.154 81.4516 42.9006L77.9794 37.2912ZM78.4093 32.3381C78.4093 33.2405 78.0814 33.9856 77.4347 34.5542C76.788 35.1228 75.938 35.4174 74.9243 35.4174H72.091V28.974H74.9243C75.9358 28.974 76.7788 29.2907 77.4304 29.9156C78.0821 30.5404 78.4129 31.3517 78.4129 32.3345L78.4093 32.3381Z" fill="white"/>
<path d="M117.82 26.4306C117.643 26.4267 117.466 26.4583 117.301 26.5237C117.135 26.5891 116.984 26.6868 116.857 26.8113C116.727 26.9387 116.625 27.0918 116.557 27.261C116.489 27.4302 116.457 27.6118 116.463 27.7941V40.1294L106.583 26.9252C106.452 26.7791 106.294 26.6599 106.119 26.5743C105.871 26.4482 105.589 26.4034 105.315 26.4462C105.04 26.4889 104.786 26.6171 104.587 26.8127C104.461 26.9418 104.362 27.0954 104.297 27.2641C104.231 27.4328 104.201 27.6131 104.207 27.7941V43.6123C104.201 43.7932 104.231 43.9736 104.297 44.1423C104.362 44.311 104.461 44.4646 104.587 44.5937C104.849 44.8414 105.196 44.9783 105.556 44.9758C105.916 44.9732 106.262 44.8316 106.52 44.5801C106.644 44.4519 106.741 44.3003 106.806 44.1342C106.871 43.9681 106.902 43.7907 106.899 43.6123V31.3005L116.767 44.4891C116.883 44.6598 117.05 44.7897 117.243 44.8605C117.427 44.935 117.622 44.9741 117.82 44.9758C117.997 44.9807 118.172 44.9493 118.336 44.8836C118.5 44.8179 118.649 44.7192 118.774 44.5937C118.9 44.4646 118.999 44.311 119.064 44.1423C119.13 43.9736 119.16 43.7932 119.154 43.6123V27.7941C119.16 27.6132 119.13 27.4328 119.064 27.2641C118.999 27.0954 118.9 26.9418 118.774 26.8127C118.649 26.6873 118.5 26.5887 118.336 26.523C118.172 26.4572 117.997 26.4258 117.82 26.4306Z" fill="white"/>
<path d="M135.628 42.7789C135.383 42.5512 135.061 42.4359 134.666 42.4359H125.512V36.8913H132.038C132.389 36.9016 132.73 36.7739 132.988 36.5355C133.11 36.4166 133.207 36.2743 133.273 36.1172C133.339 35.9601 133.373 35.7912 133.373 35.6206C133.373 35.45 133.339 35.2812 133.273 35.1241C133.207 34.9669 133.11 34.8247 132.988 34.7058C132.73 34.4673 132.389 34.3396 132.038 34.3499H125.512V28.9698H134.666C135.06 28.9698 135.383 28.8538 135.628 28.626C135.751 28.5108 135.848 28.3705 135.912 28.2146C135.976 28.0587 136.007 27.8908 136.001 27.7222C136.007 27.5488 135.977 27.3759 135.914 27.2146C135.85 27.0534 135.753 26.9073 135.63 26.7857C135.385 26.5494 135.063 26.4298 134.666 26.4298H124.155C123.978 26.4259 123.801 26.4576 123.635 26.5229C123.47 26.5883 123.319 26.6861 123.191 26.8106C123.061 26.9379 122.959 27.091 122.891 27.2603C122.824 27.4295 122.792 27.6111 122.798 27.7934V43.6123C122.795 43.7922 122.828 43.9709 122.895 44.1377C122.963 44.3045 123.062 44.4561 123.189 44.5834C123.316 44.7107 123.467 44.8111 123.633 44.8788C123.799 44.9465 123.976 44.9799 124.155 44.9772H134.666C135.061 44.9772 135.385 44.857 135.63 44.6214C135.754 44.4994 135.851 44.3528 135.914 44.191C135.978 44.0293 136.008 43.8559 136.001 43.682C136.006 43.5135 135.976 43.3457 135.912 43.19C135.848 43.0342 135.751 42.8941 135.628 42.7789H135.628Z" fill="white"/>
<path d="M89.2429 42.7711C89.379 42.4656 89.6172 42.2176 89.9162 42.0701C90.2152 41.9225 90.5561 41.8848 90.8799 41.9633C92.2428 42.2874 93.6739 42.1523 94.9529 41.579C96.232 41.0057 97.288 40.026 97.9584 38.7905C98.6288 37.5551 98.8765 36.1325 98.6633 34.7418C98.4501 33.3511 97.7878 32.0693 96.7784 31.0939C95.769 30.1184 94.4685 29.5033 93.0771 29.3433C91.6856 29.1832 90.2804 29.4871 89.0777 30.2082C87.8751 30.9293 86.9416 32.0275 86.4211 33.3338C85.9006 34.6402 85.8219 36.0822 86.1971 37.4379C86.2878 37.7599 86.2631 38.1038 86.1275 38.4095C85.9918 38.7152 85.7538 38.9634 85.4548 39.111C84.5885 39.538 83.6988 39.111 83.4424 38.1794C82.6838 35.4189 83.2235 32.3957 85.0772 29.9853C87.3652 27.012 91.3205 25.7402 94.9103 26.7985C96.1768 27.1673 97.3502 27.8039 98.3517 28.6657C99.3533 29.5275 100.16 30.5944 100.717 31.7951C101.275 32.9957 101.57 34.3022 101.584 35.6269C101.598 36.9517 101.329 38.2641 100.797 39.4761C98.9712 43.618 94.4789 45.7558 90.2424 44.7559C90.036 44.7092 89.8424 44.6173 89.6755 44.4866C89.5086 44.356 89.3726 44.1898 89.2771 44.0002C89.1815 43.8105 89.129 43.6019 89.1231 43.3895C89.1172 43.177 89.1581 42.9658 89.2429 42.7711Z" fill="white"/>
</g>
<defs>
<clipPath id="clip0_119_544">
<rect width="136" height="45" fill="white"/>
</clipPath>
</defs>
</svg>
