<svg width="51" height="51" viewBox="0 0 51 51" fill="none" xmlns="http://www.w3.org/2000/svg">
<path d="M39.6226 31.4766H19.1897C18.8507 31.4771 18.5215 31.3623 18.2563 31.1511C17.9912 30.9398 17.8057 30.6447 17.7304 30.3141L14.2899 15.3249C14.2396 15.1059 14.2393 14.8784 14.289 14.6594C14.3388 14.4403 14.4373 14.2352 14.5773 14.0595C14.7172 13.8837 14.895 13.7418 15.0974 13.6442C15.2998 13.5467 15.5215 13.496 15.7462 13.4961H43.0661C43.291 13.4956 43.5131 13.5459 43.7159 13.6433C43.9186 13.7406 44.0968 13.8825 44.2371 14.0583C44.3774 14.2341 44.4761 14.4393 44.5261 14.6586C44.576 14.8779 44.5757 15.1057 44.5254 15.3249L41.0789 30.3141C41.0037 30.6442 40.8187 30.939 40.5541 31.1502C40.2896 31.3613 39.9611 31.4764 39.6226 31.4766ZM20.379 28.4883H38.4332L41.1894 16.4873H17.6219L20.379 28.4883Z" fill="white"/>
<path d="M22.1132 44.8242C20.9808 44.8242 19.8739 44.4884 18.9323 43.8593C17.9907 43.2301 17.2569 42.3359 16.8235 41.2897C16.3902 40.2435 16.2768 39.0923 16.4977 37.9817C16.7186 36.871 17.2639 35.8508 18.0647 35.0501C18.8654 34.2494 19.8856 33.704 20.9962 33.4831C22.1069 33.2622 23.2581 33.3756 24.3043 33.8089C25.3505 34.2423 26.2447 34.9762 26.8739 35.9177C27.503 36.8593 27.8388 37.9662 27.8388 39.0987C27.8372 40.6167 27.2335 42.0721 26.1601 43.1455C25.0867 44.2189 23.6313 44.8226 22.1132 44.8242ZM22.1132 36.3624C21.5718 36.3624 21.0426 36.523 20.5924 36.8238C20.1422 37.1246 19.7914 37.5521 19.5842 38.0524C19.3771 38.5526 19.3229 39.103 19.4286 39.634C19.5343 40.165 19.7951 40.6528 20.1781 41.0355C20.561 41.4183 21.0488 41.6789 21.5798 41.7844C22.1109 41.8899 22.6613 41.8356 23.1614 41.6283C23.6616 41.4209 24.089 41.0699 24.3897 40.6197C24.6903 40.1694 24.8507 39.6401 24.8505 39.0987C24.8497 38.373 24.561 37.6774 24.0479 37.1643C23.5347 36.6513 22.8389 36.3629 22.1132 36.3624Z" fill="white"/>
<path d="M36.6972 44.8242C35.5648 44.8242 34.4578 44.4884 33.5163 43.8593C32.5747 43.2301 31.8409 42.3359 31.4075 41.2897C30.9742 40.2435 30.8608 39.0923 31.0817 37.9817C31.3026 36.871 31.8479 35.8508 32.6487 35.0501C33.4494 34.2494 34.4696 33.704 35.5802 33.4831C36.6909 33.2622 37.8421 33.3756 38.8883 33.8089C39.9345 34.2423 40.8287 34.9762 41.4578 35.9177C42.087 36.8593 42.4228 37.9662 42.4228 39.0987C42.4212 40.6167 41.8175 42.0721 40.7441 43.1455C39.6707 44.2189 38.2153 44.8226 36.6972 44.8242ZM36.6972 36.3624C36.1558 36.3624 35.6265 36.523 35.1764 36.8238C34.7262 37.1246 34.3754 37.5521 34.1682 38.0524C33.9611 38.5526 33.9069 39.103 34.0126 39.634C34.1183 40.165 34.3791 40.6528 34.762 41.0355C35.145 41.4183 35.6328 41.6789 36.1638 41.7844C36.6949 41.8899 37.2453 41.8356 37.7454 41.6283C38.2456 41.4209 38.673 41.0699 38.9737 40.6197C39.2743 40.1694 39.4347 39.6401 39.4345 39.0987C39.4337 38.373 39.145 37.6774 38.6318 37.1643C38.1186 36.6513 37.4229 36.3629 36.6972 36.3624Z" fill="white"/>
<path d="M15.7459 16.4844C15.4322 16.4843 15.1266 16.3856 14.8722 16.2022C14.6178 16.0188 14.4275 15.7599 14.3284 15.4624L11.7675 7.76953H7.04199C6.64572 7.76953 6.26568 7.61211 5.98548 7.33191C5.70527 7.0517 5.54785 6.67166 5.54785 6.27539C5.54785 5.87912 5.70527 5.49908 5.98548 5.21887C6.26568 4.93867 6.64572 4.78125 7.04199 4.78125H12.8492C13.1629 4.78128 13.4685 4.88 13.7229 5.06343C13.9773 5.24685 14.1676 5.50568 14.2667 5.80324L17.1683 14.5181C17.2431 14.7426 17.2635 14.9818 17.2277 15.2158C17.192 15.4498 17.1012 15.6719 16.9627 15.8639C16.8243 16.056 16.6423 16.2123 16.4316 16.3202C16.2209 16.4281 15.9875 16.4843 15.7508 16.4844H15.7459Z" fill="white"/>
</svg>
