<svg width="34" height="34" viewBox="0 0 34 34" fill="none" xmlns="http://www.w3.org/2000/svg">
<path d="M16.9283 2.64423e-06C15.8308 0.00048401 14.823 0.605916 14.3072 1.57459C13.7914 2.54326 13.8516 3.71739 14.4638 4.62822L15.7327 3.3611C15.6908 3.2347 15.6696 3.10233 15.6701 2.96915C15.6701 2.27725 16.231 1.71635 16.9229 1.71635C17.6148 1.71635 18.1757 2.27725 18.1757 2.96915C18.1757 3.66105 17.6148 4.22195 16.9229 4.22195C16.7903 4.22225 16.6586 4.20109 16.5327 4.15931L15.2656 5.42644C16.3208 6.14211 17.7151 6.10419 18.7299 5.33224C19.7446 4.56029 20.1533 3.22666 19.7451 2.01873C19.337 0.810814 18.2033 -0.00169148 16.9283 2.64423e-06Z" fill="#34A853"/>
<path d="M15.7471 8.6533C15.749 7.65031 15.4242 6.67399 14.8218 5.87207L13.1753 7.51682C13.6902 8.45865 13.5049 9.62931 12.7242 10.3661L13.6191 12.5531C14.945 11.6992 15.7465 10.2304 15.7471 8.6533Z" fill="#FBBC04"/>
<path d="M11.1458 11.0139H11.1028C10.0929 11.014 9.19456 10.3721 8.86749 9.41658C8.54041 8.46107 8.85691 7.40332 9.65505 6.7845C10.4532 6.16567 11.5564 6.12265 12.4004 6.67743L14.0308 5.047C12.4454 3.76169 10.2065 3.66255 8.51368 4.80268C6.82087 5.94281 6.07121 8.05479 6.66635 10.007C7.26149 11.9593 9.06185 13.2939 11.1028 13.2958C11.4177 13.296 11.7319 13.2648 12.0406 13.2028L11.1458 11.0139Z" fill="#EA4335"/>
<path d="M16.9909 12.9056C15.9604 12.9046 14.9353 13.0547 13.9484 13.3512L15.2531 16.5387C15.8211 16.398 16.404 16.3271 16.9892 16.3275C20.3795 16.3285 23.2971 18.7242 23.9578 22.0496C24.6185 25.375 22.8383 28.704 19.7058 30.0009C16.5732 31.2979 12.9608 30.2016 11.0775 27.3824C9.19415 24.5632 9.56441 20.8063 11.9618 18.409C12.4621 17.9103 13.0332 17.4881 13.6567 17.1562L12.3663 13.9776C7.55633 16.3333 5.27897 21.9227 7.073 26.9691C8.86703 32.0156 14.1615 34.9131 19.3791 33.7039C24.5967 32.4948 28.0769 27.5637 27.4682 22.2425C26.8596 16.9214 22.3557 12.9035 16.9999 12.9038L16.9909 12.9056Z" fill="#4285F4"/>
</svg>
