<svg width="21" height="24" viewBox="0 0 21 24" fill="none" xmlns="http://www.w3.org/2000/svg">
<path d="M21 3.4275V5.57203C21 7.45781 16.2938 9 10.5 9C4.70625 9 0 7.45781 0 5.57344V3.4275C0 1.54125 4.70625 0 10.5 0C16.2938 0 21 1.54125 21 3.4275ZM21 8.25V13.0734C21 14.9578 16.2938 16.5 10.5 16.5C4.70625 16.5 0 14.9578 0 13.0734V8.25C2.25563 9.8025 6.38437 10.5291 10.5 10.5291C14.6156 10.5291 18.7453 9.80156 21 8.25ZM21 15.75V20.5734C21 22.4578 16.2938 24 10.5 24C4.70625 24 0 22.4587 0 20.572V15.75C2.25563 17.303 6.38437 18.0295 10.5 18.0295C14.6156 18.0295 18.7453 17.3016 21 15.75Z" fill="black"/>
</svg>
