<svg width="266" height="112" viewBox="0 0 266 112" fill="none" xmlns="http://www.w3.org/2000/svg">
<rect width="266" height="112" rx="8" fill="#F9F9F9"/>
<path d="M36.63 76.454H48.904V79.378H36.63V76.454ZM36.97 89H33.57V65.2H50.366V68.158H36.97V89ZM54.344 89V70.98H57.472V75.876L57.166 74.652C57.6647 73.4053 58.5033 72.4533 59.682 71.796C60.8607 71.1387 62.3113 70.81 64.034 70.81V73.972C63.898 73.9493 63.762 73.938 63.626 73.938C63.5127 73.938 63.3993 73.938 63.286 73.938C61.5407 73.938 60.158 74.4593 59.138 75.502C58.118 76.5447 57.608 78.052 57.608 80.024V89H54.344ZM75.9149 89.204C73.9882 89.204 72.2882 88.8073 70.8149 88.014C69.3642 87.2207 68.2309 86.1327 67.4149 84.75C66.6215 83.3673 66.2249 81.7807 66.2249 79.99C66.2249 78.1993 66.6102 76.6127 67.3809 75.23C68.1742 73.8473 69.2509 72.7707 70.6109 72C71.9935 71.2067 73.5462 70.81 75.2689 70.81C77.0142 70.81 78.5555 71.1953 79.8929 71.966C81.2302 72.7367 82.2729 73.8247 83.0209 75.23C83.7915 76.6127 84.1769 78.2333 84.1769 80.092C84.1769 80.228 84.1655 80.3867 84.1429 80.568C84.1429 80.7493 84.1315 80.9193 84.1089 81.078H68.7749V78.732H82.4089L81.0829 79.548C81.1055 78.392 80.8675 77.3607 80.3689 76.454C79.8702 75.5473 79.1789 74.8447 78.2949 74.346C77.4335 73.8247 76.4249 73.564 75.2689 73.564C74.1355 73.564 73.1269 73.8247 72.2429 74.346C71.3589 74.8447 70.6675 75.5587 70.1689 76.488C69.6702 77.3947 69.4209 78.4373 69.4209 79.616V80.16C69.4209 81.3613 69.6929 82.438 70.2369 83.39C70.8035 84.3193 71.5855 85.0447 72.5829 85.566C73.5802 86.0873 74.7249 86.348 76.0169 86.348C77.0822 86.348 78.0455 86.1667 78.9069 85.804C79.7909 85.4413 80.5615 84.8973 81.2189 84.172L83.0209 86.28C82.2049 87.232 81.1849 87.9573 79.9609 88.456C78.7595 88.9547 77.4109 89.204 75.9149 89.204ZM96.7332 89.204C94.8066 89.204 93.1066 88.8073 91.6332 88.014C90.1826 87.2207 89.0492 86.1327 88.2332 84.75C87.4399 83.3673 87.0432 81.7807 87.0432 79.99C87.0432 78.1993 87.4286 76.6127 88.1992 75.23C88.9926 73.8473 90.0692 72.7707 91.4292 72C92.8119 71.2067 94.3646 70.81 96.0872 70.81C97.8326 70.81 99.3739 71.1953 100.711 71.966C102.049 72.7367 103.091 73.8247 103.839 75.23C104.61 76.6127 104.995 78.2333 104.995 80.092C104.995 80.228 104.984 80.3867 104.961 80.568C104.961 80.7493 104.95 80.9193 104.927 81.078H89.5932V78.732H103.227L101.901 79.548C101.924 78.392 101.686 77.3607 101.187 76.454C100.689 75.5473 99.9972 74.8447 99.1132 74.346C98.2519 73.8247 97.2432 73.564 96.0872 73.564C94.9539 73.564 93.9452 73.8247 93.0612 74.346C92.1772 74.8447 91.4859 75.5587 90.9872 76.488C90.4886 77.3947 90.2392 78.4373 90.2392 79.616V80.16C90.2392 81.3613 90.5112 82.438 91.0552 83.39C91.6219 84.3193 92.4039 85.0447 93.4012 85.566C94.3986 86.0873 95.5432 86.348 96.8352 86.348C97.9006 86.348 98.8639 86.1667 99.7252 85.804C100.609 85.4413 101.38 84.8973 102.037 84.172L103.839 86.28C103.023 87.232 102.003 87.9573 100.779 88.456C99.5779 88.9547 98.2292 89.204 96.7332 89.204ZM132.07 70.81C133.52 70.81 134.801 71.0933 135.912 71.66C137.022 72.2267 137.884 73.088 138.496 74.244C139.13 75.4 139.448 76.862 139.448 78.63V89H136.184V79.004C136.184 77.2587 135.776 75.944 134.96 75.06C134.144 74.176 132.999 73.734 131.526 73.734C130.438 73.734 129.486 73.9607 128.67 74.414C127.854 74.8673 127.219 75.536 126.766 76.42C126.335 77.304 126.12 78.4033 126.12 79.718V89H122.856V79.004C122.856 77.2587 122.448 75.944 121.632 75.06C120.838 74.176 119.694 73.734 118.198 73.734C117.132 73.734 116.192 73.9607 115.376 74.414C114.56 74.8673 113.925 75.536 113.472 76.42C113.018 77.304 112.792 78.4033 112.792 79.718V89H109.528V70.98H112.656V75.774L112.146 74.55C112.712 73.3713 113.585 72.4533 114.764 71.796C115.942 71.1387 117.314 70.81 118.878 70.81C120.6 70.81 122.085 71.2407 123.332 72.102C124.578 72.9407 125.394 74.2213 125.78 75.944L124.454 75.4C124.998 74.0173 125.95 72.9067 127.31 72.068C128.67 71.2293 130.256 70.81 132.07 70.81ZM145.453 89V70.98H148.717V89H145.453ZM147.085 67.512C146.451 67.512 145.918 67.308 145.487 66.9C145.079 66.492 144.875 65.9933 144.875 65.404C144.875 64.792 145.079 64.282 145.487 63.874C145.918 63.466 146.451 63.262 147.085 63.262C147.72 63.262 148.241 63.466 148.649 63.874C149.08 64.2593 149.295 64.7467 149.295 65.336C149.295 65.948 149.091 66.4693 148.683 66.9C148.275 67.308 147.743 67.512 147.085 67.512ZM162.531 89.204C160.99 89.204 159.63 88.9207 158.451 88.354C157.295 87.7873 156.389 86.926 155.731 85.77C155.097 84.5913 154.779 83.118 154.779 81.35V70.98H158.043V80.976C158.043 82.744 158.463 84.07 159.301 84.954C160.163 85.838 161.364 86.28 162.905 86.28C164.039 86.28 165.025 86.0533 165.863 85.6C166.702 85.124 167.348 84.444 167.801 83.56C168.255 82.6533 168.481 81.5653 168.481 80.296V70.98H171.745V89H168.651V84.138L169.161 85.43C168.572 86.6313 167.688 87.5607 166.509 88.218C165.331 88.8753 164.005 89.204 162.531 89.204ZM200.501 70.81C201.952 70.81 203.233 71.0933 204.343 71.66C205.454 72.2267 206.315 73.088 206.927 74.244C207.562 75.4 207.879 76.862 207.879 78.63V89H204.615V79.004C204.615 77.2587 204.207 75.944 203.391 75.06C202.575 74.176 201.431 73.734 199.957 73.734C198.869 73.734 197.917 73.9607 197.101 74.414C196.285 74.8673 195.651 75.536 195.197 76.42C194.767 77.304 194.551 78.4033 194.551 79.718V89H191.287V79.004C191.287 77.2587 190.879 75.944 190.063 75.06C189.27 74.176 188.125 73.734 186.629 73.734C185.564 73.734 184.623 73.9607 183.807 74.414C182.991 74.8673 182.357 75.536 181.903 76.42C181.45 77.304 181.223 78.4033 181.223 79.718V89H177.959V70.98H181.087V75.774L180.577 74.55C181.144 73.3713 182.017 72.4533 183.195 71.796C184.374 71.1387 185.745 70.81 187.309 70.81C189.032 70.81 190.517 71.2407 191.763 72.102C193.01 72.9407 193.826 74.2213 194.211 75.944L192.885 75.4C193.429 74.0173 194.381 72.9067 195.741 72.068C197.101 71.2293 198.688 70.81 200.501 70.81Z" fill="black"/>
<path d="M71.382 36.168C70.598 36.168 69.8467 36.0653 69.128 35.86C68.4093 35.6453 67.8307 35.37 67.392 35.034L68.162 33.326C68.582 33.6247 69.0767 33.872 69.646 34.068C70.2247 34.2547 70.808 34.348 71.396 34.348C71.844 34.348 72.2033 34.306 72.474 34.222C72.754 34.1287 72.9593 34.0027 73.09 33.844C73.2207 33.6853 73.286 33.5033 73.286 33.298C73.286 33.0367 73.1833 32.8313 72.978 32.682C72.7727 32.5233 72.502 32.3973 72.166 32.304C71.83 32.2013 71.4567 32.108 71.046 32.024C70.6447 31.9307 70.2387 31.8187 69.828 31.688C69.4267 31.5573 69.058 31.3893 68.722 31.184C68.386 30.9787 68.1107 30.708 67.896 30.372C67.6907 30.036 67.588 29.6067 67.588 29.084C67.588 28.524 67.7373 28.0153 68.036 27.558C68.344 27.0913 68.8013 26.7227 69.408 26.452C70.024 26.172 70.794 26.032 71.718 26.032C72.334 26.032 72.9407 26.1067 73.538 26.256C74.1353 26.396 74.6627 26.6107 75.12 26.9L74.42 28.622C73.9627 28.3607 73.5053 28.1693 73.048 28.048C72.5907 27.9173 72.1427 27.852 71.704 27.852C71.2653 27.852 70.906 27.9033 70.626 28.006C70.346 28.1087 70.1453 28.244 70.024 28.412C69.9027 28.5707 69.842 28.7573 69.842 28.972C69.842 29.224 69.9447 29.4293 70.15 29.588C70.3553 29.7373 70.626 29.8587 70.962 29.952C71.298 30.0453 71.6667 30.1387 72.068 30.232C72.4787 30.3253 72.8847 30.4327 73.286 30.554C73.6967 30.6753 74.07 30.8387 74.406 31.044C74.742 31.2493 75.0127 31.52 75.218 31.856C75.4327 32.192 75.54 32.6167 75.54 33.13C75.54 33.6807 75.386 34.1847 75.078 34.642C74.77 35.0993 74.308 35.468 73.692 35.748C73.0853 36.028 72.3153 36.168 71.382 36.168ZM78.983 36V28.048H75.847V26.2H84.387V28.048H81.251V36H78.983ZM83.8271 36L88.1951 26.2H90.4351L94.8171 36H92.4371L88.8531 27.348H89.7491L86.1511 36H83.8271ZM86.0111 33.9L86.6131 32.178H91.6531L92.2691 33.9H86.0111ZM95.8339 36V26.2H100.076C100.953 26.2 101.709 26.3447 102.344 26.634C102.979 26.914 103.469 27.32 103.814 27.852C104.159 28.384 104.332 29.0187 104.332 29.756C104.332 30.484 104.159 31.114 103.814 31.646C103.469 32.1687 102.979 32.57 102.344 32.85C101.709 33.13 100.953 33.27 100.076 33.27H97.0939L98.1019 32.276V36H95.8339ZM102.064 36L99.6139 32.444H102.036L104.514 36H102.064ZM98.1019 32.528L97.0939 31.464H99.9499C100.65 31.464 101.173 31.3147 101.518 31.016C101.863 30.708 102.036 30.288 102.036 29.756C102.036 29.2147 101.863 28.7947 101.518 28.496C101.173 28.1973 100.65 28.048 99.9499 28.048H97.0939L98.1019 26.97V32.528ZM108.022 36V28.048H104.886V26.2H113.426V28.048H110.29V36H108.022ZM118.836 36.168C117.446 36.168 116.358 35.7807 115.574 35.006C114.79 34.2313 114.398 33.1253 114.398 31.688V26.2H116.666V31.604C116.666 32.5373 116.858 33.2093 117.24 33.62C117.623 34.0307 118.16 34.236 118.85 34.236C119.541 34.236 120.078 34.0307 120.46 33.62C120.843 33.2093 121.034 32.5373 121.034 31.604V26.2H123.274V31.688C123.274 33.1253 122.882 34.2313 122.098 35.006C121.314 35.7807 120.227 36.168 118.836 36.168ZM125.516 36V26.2H129.758C130.635 26.2 131.391 26.3447 132.026 26.634C132.66 26.914 133.15 27.32 133.496 27.852C133.841 28.384 134.014 29.0187 134.014 29.756C134.014 30.484 133.841 31.114 133.496 31.646C133.15 32.178 132.66 32.5887 132.026 32.878C131.391 33.158 130.635 33.298 129.758 33.298H126.776L127.784 32.276V36H125.516ZM127.784 32.528L126.776 31.45H129.632C130.332 31.45 130.854 31.3007 131.2 31.002C131.545 30.7033 131.718 30.288 131.718 29.756C131.718 29.2147 131.545 28.7947 131.2 28.496C130.854 28.1973 130.332 28.048 129.632 28.048H126.776L127.784 26.97V32.528Z" fill="black"/>
<g clip-path="url(#clip0_500_1330)">
<path d="M57 22.4275V24.572C57 26.4578 52.2938 28 46.5 28C40.7063 28 36 26.4578 36 24.5734V22.4275C36 20.5412 40.7063 19 46.5 19C52.2938 19 57 20.5412 57 22.4275ZM57 27.25V32.0734C57 33.9578 52.2938 35.5 46.5 35.5C40.7063 35.5 36 33.9578 36 32.0734V27.25C38.2556 28.8025 42.3844 29.5291 46.5 29.5291C50.6156 29.5291 54.7453 28.8016 57 27.25ZM57 34.75V39.5734C57 41.4578 52.2938 43 46.5 43C40.7063 43 36 41.4587 36 39.572V34.75C38.2556 36.303 42.3844 37.0295 46.5 37.0295C50.6156 37.0295 54.7453 36.3016 57 34.75Z" fill="black"/>
</g>
<defs>
<clipPath id="clip0_500_1330">
<rect width="21" height="24" fill="white" transform="translate(36 19)"/>
</clipPath>
</defs>
</svg>
