<svg width="136" height="136" viewBox="0 0 136 136" fill="none" xmlns="http://www.w3.org/2000/svg">
<g clip-path="url(#clip0_500_1321)">
<path d="M132.893 117.858L101.097 86.0623C108.328 75.3284 111.895 61.917 109.985 47.6263C106.736 23.3084 86.8013 3.5326 62.4647 0.451345C26.2866 -4.12803 -4.12747 26.2913 0.467847 62.4482C3.5491 86.7901 23.3302 106.728 47.6428 109.969C61.9361 111.879 75.3475 108.312 86.0788 101.081L117.874 132.876C122.023 137.025 128.751 137.025 132.9 132.876C137.036 128.748 137.036 122.001 132.893 117.858ZM72.7019 67.4154C71.666 73.4185 67.0972 77.3763 60.5628 78.6513V80.7498C60.5628 83.6796 58.1847 86.0623 55.2503 86.0623C52.316 86.0623 49.9378 83.6717 49.9378 80.7498V78.4123C47.3347 77.881 44.7316 77.0045 42.3941 76.181L41.1191 75.7295C38.3566 74.7467 36.8957 71.692 37.8785 68.9295C38.8347 66.167 41.8629 64.7326 44.6519 65.6889L45.9965 66.1702C48.2708 66.992 50.8442 67.9132 52.8788 68.2205C57.1899 68.8846 61.7693 68.2122 62.2209 65.6142C62.5447 63.7299 62.3288 62.7933 53.774 60.3442L52.116 59.8717C47.2285 58.1982 35.7269 55.0638 37.7988 43.0842C38.8347 37.081 43.43 33.1498 49.9378 31.8748V29.7498C49.9378 26.8199 52.316 24.4373 55.2503 24.4373C58.1847 24.4373 60.5628 26.5888 60.5628 29.7498V32.0594C62.2235 32.3975 64.0319 32.8749 66.2658 33.651C69.0336 34.6139 70.5025 37.6434 69.541 40.4165C68.5847 43.1904 65.5566 44.6513 62.7675 43.6951C60.616 42.9513 58.916 42.4732 57.5878 42.2873C53.3086 41.5983 48.7213 42.2956 48.2697 44.8936C48.0041 46.4374 47.8131 47.5498 55.0963 49.6828L56.69 50.1394C63.4582 52.0623 74.7738 55.3029 72.7019 67.4154Z" fill="black"/>
</g>
<defs>
<clipPath id="clip0_500_1321">
<rect width="136" height="136" fill="white"/>
</clipPath>
</defs>
</svg>
