<svg width="203" height="179" viewBox="0 0 203 179" fill="none" xmlns="http://www.w3.org/2000/svg">
<path d="M44.0494 108.531C49.3623 113.487 57.4109 113.487 62.3273 108.531L82.4688 88.4295L105.219 111.18C107.685 113.646 110.936 114.875 114.188 114.875C117.439 114.875 120.682 113.636 123.156 111.158L183.977 50.3373C188.929 45.3852 188.929 37.3524 183.977 32.3963C179.021 27.4403 170.988 27.4403 166.036 32.3956L114.188 84.2664L91.4293 61.5082C86.4732 56.5521 78.4444 56.5521 73.4884 61.5082L44.0494 90.6102C39.4502 95.5266 39.4502 103.575 44.0494 108.531ZM190.312 152.938H25.375V13.0182C25.375 6.36912 19.6934 0.6875 12.6875 0.6875C5.68162 0.6875 0 6.36912 0 13.0182V165.625C0 172.603 5.70937 178.312 12.6875 178.312H190.312C197.33 178.312 203 172.643 203 165.625C203 158.607 197.33 152.938 190.312 152.938Z" fill="black"/>
</svg>
