<svg width="20" height="23" viewBox="0 0 20 23" fill="none" xmlns="http://www.w3.org/2000/svg">
<path d="M10 0C4.47656 0 0 5.14805 0 11.5C0 17.852 4.47656 23 10 23C15.5234 23 20 17.852 20 11.5C20 5.14805 15.5234 0 10 0ZM14.5508 12.4209L8.92578 16.374C8.77734 16.4773 8.60547 16.5312 8.4375 16.5312C7.90273 16.5312 7.5 16.0281 7.5 15.4531V7.54688C7.5 6.97637 7.89844 6.46875 8.4375 6.46875C8.60719 6.46875 8.77648 6.52158 8.92617 6.6267L14.5512 10.5798C14.8281 10.7768 15 11.1227 15 11.5C15 11.8773 14.8281 12.2232 14.5508 12.4209Z" fill="black"/>
</svg>
