<svg width="47" height="46" viewBox="0 0 47 46" fill="none" xmlns="http://www.w3.org/2000/svg">
<path d="M0.94043 36.6599H10.3404V45.5091L19.1896 36.6599H46.0604V0.939941H0.94043V36.6599ZM2.82043 2.81994H44.1804V34.7799H18.4113L12.2204 40.9708V34.7799H2.82043V2.81994Z" fill="black"/>
<path d="M15.98 18.8C15.98 16.7264 14.2936 15.04 12.22 15.04C10.1463 15.04 8.45996 16.7264 8.45996 18.8C8.45996 20.8737 10.1463 22.56 12.22 22.56C14.2936 22.56 15.98 20.8737 15.98 18.8ZM10.34 18.8C10.34 17.7632 11.1831 16.92 12.22 16.92C13.2568 16.92 14.1 17.7632 14.1 18.8C14.1 19.8369 13.2568 20.68 12.22 20.68C11.1831 20.68 10.34 19.8369 10.34 18.8Z" fill="black"/>
<path d="M23.5002 22.56C25.5739 22.56 27.2602 20.8737 27.2602 18.8C27.2602 16.7264 25.5739 15.04 23.5002 15.04C21.4266 15.04 19.7402 16.7264 19.7402 18.8C19.7402 20.8737 21.4266 22.56 23.5002 22.56ZM23.5002 16.92C24.5371 16.92 25.3802 17.7632 25.3802 18.8C25.3802 19.8369 24.5371 20.68 23.5002 20.68C22.4634 20.68 21.6202 19.8369 21.6202 18.8C21.6202 17.7632 22.4634 16.92 23.5002 16.92Z" fill="black"/>
<path d="M34.7805 22.56C36.8541 22.56 38.5405 20.8737 38.5405 18.8C38.5405 16.7264 36.8541 15.04 34.7805 15.04C32.7069 15.04 31.0205 16.7264 31.0205 18.8C31.0205 20.8737 32.7069 22.56 34.7805 22.56ZM34.7805 16.92C35.8173 16.92 36.6605 17.7632 36.6605 18.8C36.6605 19.8369 35.8173 20.68 34.7805 20.68C33.7437 20.68 32.9005 19.8369 32.9005 18.8C32.9005 17.7632 33.7437 16.92 34.7805 16.92Z" fill="black"/>
</svg>
