<svg width="20" height="20" viewBox="0 0 20 20" fill="none" xmlns="http://www.w3.org/2000/svg">
<path d="M17.8415 9.65001L10.3415 2.15001C10.029 1.84007 9.60663 1.66632 9.1665 1.66667H3.33317C2.89114 1.66667 2.46722 1.84227 2.15466 2.15483C1.8421 2.46739 1.6665 2.89131 1.6665 3.33334V9.16667C1.66633 9.3866 1.70968 9.60438 1.79407 9.80748C1.87845 10.0106 2.0022 10.195 2.15817 10.35L9.65817 17.85C9.97066 18.1599 10.3931 18.3337 10.8332 18.3333C11.2745 18.3315 11.697 18.1547 12.0082 17.8417L17.8415 12.0083C18.1545 11.6972 18.3313 11.2747 18.3332 10.8333C18.3333 10.6134 18.29 10.3956 18.2056 10.1925C18.1212 9.98944 17.9975 9.80505 17.8415 9.65001ZM10.8332 16.6667L3.33317 9.16667V3.33334H9.1665L16.6665 10.8333M5.4165 4.16667C5.66373 4.16667 5.90541 4.23998 6.11097 4.37734C6.31653 4.51469 6.47674 4.70991 6.57135 4.93832C6.66596 5.16673 6.69072 5.41806 6.64249 5.66053C6.59425 5.90301 6.4752 6.12574 6.30039 6.30056C6.12557 6.47537 5.90284 6.59442 5.66037 6.64265C5.41789 6.69089 5.16656 6.66613 4.93815 6.57152C4.70974 6.47691 4.51452 6.3167 4.37717 6.11114C4.23982 5.90557 4.1665 5.6639 4.1665 5.41667C4.1665 5.08515 4.2982 4.76721 4.53262 4.53279C4.76704 4.29837 5.08498 4.16667 5.4165 4.16667Z" fill="#F8863C"/>
</svg>
