<svg width="15" height="16" viewBox="0 0 15 16" fill="none" xmlns="http://www.w3.org/2000/svg">
<path fill-rule="evenodd" clip-rule="evenodd" d="M3.75 6.92157V8.42157H11.25V6.92157H3.75ZM7.5 0.17157C3.375 0.17157 0 3.54657 0 7.67157C0 11.7966 3.375 15.1716 7.5 15.1716C11.625 15.1716 15 11.7966 15 7.67157C15 3.54657 11.625 0.17157 7.5 0.17157ZM7.5 13.6716C4.2 13.6716 1.5 10.9716 1.5 7.67157C1.5 4.37157 4.2 1.67157 7.5 1.67157C10.8 1.67157 13.5 4.37157 13.5 7.67157C13.5 10.9716 10.8 13.6716 7.5 13.6716Z" fill="black"/>
</svg>
