<svg width="20" height="20" viewBox="0 0 20 20" fill="none" xmlns="http://www.w3.org/2000/svg">
<path d="M1.42871 5.04463C1.42871 4.62548 1.77759 4.28571 2.20793 4.28571H17.7924C18.2227 4.28571 18.5716 4.62548 18.5716 5.04463C18.5716 5.46378 18.2227 5.80356 17.7924 5.80356H2.20793C1.77759 5.80356 1.42871 5.46378 1.42871 5.04463Z" fill="black"/>
<path d="M4.93555 10.3571C4.93555 9.93799 5.28443 9.59821 5.71477 9.59821H14.2862C14.7166 9.59821 15.0654 9.93799 15.0654 10.3571C15.0654 10.7763 14.7166 11.1161 14.2862 11.1161H5.71477C5.28443 11.1161 4.93555 10.7763 4.93555 10.3571Z" fill="black"/>
<path d="M8.83097 14.9107C8.40069 14.9107 8.05176 15.2505 8.05176 15.6696C8.05176 16.0888 8.40069 16.4286 8.83097 16.4286H11.1687C11.599 16.4286 11.9479 16.0888 11.9479 15.6696C11.9479 15.2505 11.599 14.9107 11.1687 14.9107H8.83097Z" fill="black"/>
</svg>
