<svg width="87" height="15" viewBox="0 0 87 15" fill="none" xmlns="http://www.w3.org/2000/svg">
<path d="M13.125 6.09375H8.81836L7.5 1.875L6.18164 6.09375H1.875L5.36426 8.70996L3.98438 13.125L7.5 10.3125L11.0156 13.125L9.63574 8.70996L13.125 6.09375Z" fill="#F5B827"/>
<path d="M31.125 6.09375H26.8184L25.5 1.875L24.1816 6.09375H19.875L23.3643 8.70996L21.9844 13.125L25.5 10.3125L29.0156 13.125L27.6357 8.70996L31.125 6.09375Z" fill="#F5B827"/>
<path d="M49.125 6.09375H44.8184L43.5 1.875L42.1816 6.09375H37.875L41.3643 8.70996L39.9844 13.125L43.5 10.3125L47.0156 13.125L45.6357 8.70996L49.125 6.09375Z" fill="#F5B827"/>
<path d="M67.125 6.09375H62.8184L61.5 1.875L60.1816 6.09375H55.875L59.3643 8.70996L57.9844 13.125L61.5 10.3125L65.0156 13.125L63.6357 8.70996L67.125 6.09375Z" fill="#F5B827"/>
<path d="M85.125 6.09375H80.8184L79.5 1.875L78.1816 6.09375H73.875L77.3643 8.70996L75.9844 13.125L79.5 10.3125L83.0156 13.125L81.6357 8.70996L85.125 6.09375Z" fill="#DDDDDD"/>
</svg>
