<svg width="36" height="36" viewBox="0 0 36 36" fill="none" xmlns="http://www.w3.org/2000/svg">
<path fill-rule="evenodd" clip-rule="evenodd" d="M36 4.5C36 2.01635 33.9837 0 31.5 0H4.5C2.01635 0 0 2.01635 0 4.5V31.5C0 33.9837 2.01635 36 4.5 36H31.5C33.9837 36 36 33.9837 36 31.5V4.5Z" fill="#2867B2"/>
<path d="M10.323 12.5625H4.29297V30.7005H10.323V12.5625Z" fill="white"/>
<path d="M7.3485 3.81653C5.28546 3.81653 3.9375 5.17286 3.9375 6.95057C3.9375 8.69094 5.24447 10.0847 7.2687 10.0847H7.30765C9.4102 10.0847 10.7189 8.69094 10.7189 6.95057C10.6799 5.17286 9.41034 3.81653 7.3485 3.81653Z" fill="white"/>
<path d="M25.1211 12.136C21.9226 12.136 20.4899 13.895 19.6876 15.1305V12.5625H13.6592C13.7391 14.2639 13.6592 30.7004 13.6592 30.7004H19.6876V20.5709C19.6876 20.0287 19.7265 19.4867 19.8863 19.0992C20.3214 18.0164 21.314 16.8947 22.9796 16.8947C25.1601 16.8947 26.0337 18.5586 26.0337 20.9959V30.7004H32.0624V20.2991C32.0624 14.7277 29.0878 12.136 25.1211 12.136Z" fill="white"/>
</svg>
