<svg width="869" height="115" viewBox="0 0 869 115" fill="none" xmlns="http://www.w3.org/2000/svg">
<rect x="131" y="79" width="738" height="6" fill="#D9D9D9"/>
<path d="M37.52 27V10.2H39.92V27H37.52ZM57.851 14.16C58.891 14.16 59.803 14.36 60.587 14.76C61.387 15.16 62.011 15.768 62.459 16.584C62.907 17.4 63.131 18.432 63.131 19.68V27H60.827V19.944C60.827 18.712 60.523 17.784 59.915 17.16C59.323 16.536 58.483 16.224 57.395 16.224C56.579 16.224 55.867 16.384 55.259 16.704C54.651 17.024 54.179 17.496 53.843 18.12C53.523 18.744 53.363 19.52 53.363 20.448V27H51.059V14.28H53.267V17.712L52.907 16.8C53.323 15.968 53.963 15.32 54.827 14.856C55.691 14.392 56.699 14.16 57.851 14.16ZM73.0589 27.144C71.6989 27.144 70.4989 26.864 69.4589 26.304C68.4349 25.744 67.6349 24.976 67.0589 24C66.4989 23.024 66.2189 21.904 66.2189 20.64C66.2189 19.376 66.4909 18.256 67.0349 17.28C67.5949 16.304 68.3549 15.544 69.3149 15C70.2909 14.44 71.3869 14.16 72.6029 14.16C73.8349 14.16 74.9229 14.432 75.8669 14.976C76.8109 15.52 77.5469 16.288 78.0749 17.28C78.6189 18.256 78.8909 19.4 78.8909 20.712C78.8909 20.808 78.8829 20.92 78.8669 21.048C78.8669 21.176 78.8589 21.296 78.8429 21.408H68.0189V19.752H77.6429L76.7069 20.328C76.7229 19.512 76.5549 18.784 76.2029 18.144C75.8509 17.504 75.3629 17.008 74.7389 16.656C74.1309 16.288 73.4189 16.104 72.6029 16.104C71.8029 16.104 71.0909 16.288 70.4669 16.656C69.8429 17.008 69.3549 17.512 69.0029 18.168C68.6509 18.808 68.4749 19.544 68.4749 20.376V20.76C68.4749 21.608 68.6669 22.368 69.0509 23.04C69.4509 23.696 70.0029 24.208 70.7069 24.576C71.4109 24.944 72.2189 25.128 73.1309 25.128C73.8829 25.128 74.5629 25 75.1709 24.744C75.7949 24.488 76.3389 24.104 76.8029 23.592L78.0749 25.08C77.4989 25.752 76.7789 26.264 75.9149 26.616C75.0669 26.968 74.1149 27.144 73.0589 27.144ZM87.7543 27.144C86.3943 27.144 85.1943 26.864 84.1543 26.304C83.1303 25.744 82.3303 24.976 81.7543 24C81.1943 23.024 80.9143 21.904 80.9143 20.64C80.9143 19.376 81.1863 18.256 81.7303 17.28C82.2903 16.304 83.0503 15.544 84.0103 15C84.9863 14.44 86.0823 14.16 87.2983 14.16C88.5303 14.16 89.6183 14.432 90.5623 14.976C91.5063 15.52 92.2423 16.288 92.7703 17.28C93.3143 18.256 93.5863 19.4 93.5863 20.712C93.5863 20.808 93.5783 20.92 93.5623 21.048C93.5623 21.176 93.5543 21.296 93.5383 21.408H82.7143V19.752H92.3383L91.4023 20.328C91.4183 19.512 91.2503 18.784 90.8983 18.144C90.5463 17.504 90.0583 17.008 89.4343 16.656C88.8263 16.288 88.1143 16.104 87.2983 16.104C86.4983 16.104 85.7863 16.288 85.1623 16.656C84.5383 17.008 84.0503 17.512 83.6983 18.168C83.3463 18.808 83.1703 19.544 83.1703 20.376V20.76C83.1703 21.608 83.3623 22.368 83.7463 23.04C84.1463 23.696 84.6983 24.208 85.4023 24.576C86.1063 24.944 86.9143 25.128 87.8263 25.128C88.5783 25.128 89.2583 25 89.8663 24.744C90.4903 24.488 91.0343 24.104 91.4983 23.592L92.7703 25.08C92.1943 25.752 91.4743 26.264 90.6103 26.616C89.7623 26.968 88.8103 27.144 87.7543 27.144ZM102.042 27.144C100.81 27.144 99.7056 26.872 98.7296 26.328C97.7696 25.784 97.0096 25.024 96.4496 24.048C95.8896 23.072 95.6096 21.936 95.6096 20.64C95.6096 19.344 95.8896 18.216 96.4496 17.256C97.0096 16.28 97.7696 15.52 98.7296 14.976C99.7056 14.432 100.81 14.16 102.042 14.16C103.114 14.16 104.082 14.4 104.946 14.88C105.81 15.36 106.498 16.08 107.01 17.04C107.538 18 107.802 19.2 107.802 20.64C107.802 22.08 107.546 23.28 107.034 24.24C106.538 25.2 105.858 25.928 104.994 26.424C104.13 26.904 103.146 27.144 102.042 27.144ZM102.234 25.128C103.034 25.128 103.754 24.944 104.394 24.576C105.05 24.208 105.562 23.688 105.93 23.016C106.314 22.328 106.506 21.536 106.506 20.64C106.506 19.728 106.314 18.944 105.93 18.288C105.562 17.616 105.05 17.096 104.394 16.728C103.754 16.36 103.034 16.176 102.234 16.176C101.418 16.176 100.69 16.36 100.05 16.728C99.4096 17.096 98.8976 17.616 98.5136 18.288C98.1296 18.944 97.9376 19.728 97.9376 20.64C97.9376 21.536 98.1296 22.328 98.5136 23.016C98.8976 23.688 99.4096 24.208 100.05 24.576C100.69 24.944 101.418 25.128 102.234 25.128ZM106.578 27V23.568L106.722 20.616L106.482 17.664V9.192H108.786V27H106.578Z" fill="black"/>
<path d="M139.132 27.28C137.751 27.28 136.398 27.084 135.072 26.692C133.766 26.2813 132.664 25.7213 131.768 25.012L133.308 22.184C134.018 22.7627 134.876 23.2293 135.884 23.584C136.911 23.9387 137.975 24.116 139.076 24.116C140.364 24.116 141.372 23.8453 142.1 23.304C142.847 22.7627 143.22 22.0347 143.22 21.12C143.22 20.504 143.062 19.9627 142.744 19.496C142.446 19.0293 141.904 18.6747 141.12 18.432C140.355 18.1893 139.3 18.068 137.956 18.068H133.224L134.232 7.4H145.74V10.452H135.576L137.48 8.716L136.724 16.696L134.82 14.988H138.768C140.71 14.988 142.268 15.2493 143.444 15.772C144.639 16.276 145.507 16.9853 146.048 17.9C146.608 18.796 146.888 19.8227 146.888 20.98C146.888 22.1187 146.608 23.164 146.048 24.116C145.488 25.068 144.63 25.8333 143.472 26.412C142.334 26.9907 140.887 27.28 139.132 27.28ZM157.164 27.28C155.615 27.28 154.215 26.888 152.964 26.104C151.732 25.32 150.761 24.1813 150.052 22.688C149.343 21.176 148.988 19.3467 148.988 17.2C148.988 15.0533 149.343 13.2333 150.052 11.74C150.761 10.228 151.732 9.08 152.964 8.296C154.215 7.512 155.615 7.12 157.164 7.12C158.732 7.12 160.132 7.512 161.364 8.296C162.596 9.08 163.567 10.228 164.276 11.74C165.004 13.2333 165.368 15.0533 165.368 17.2C165.368 19.3467 165.004 21.176 164.276 22.688C163.567 24.1813 162.596 25.32 161.364 26.104C160.132 26.888 158.732 27.28 157.164 27.28ZM157.164 24.116C158.079 24.116 158.872 23.8733 159.544 23.388C160.216 22.884 160.739 22.1187 161.112 21.092C161.504 20.0653 161.7 18.768 161.7 17.2C161.7 15.6133 161.504 14.316 161.112 13.308C160.739 12.2813 160.216 11.5253 159.544 11.04C158.872 10.536 158.079 10.284 157.164 10.284C156.287 10.284 155.503 10.536 154.812 11.04C154.14 11.5253 153.608 12.2813 153.216 13.308C152.843 14.316 152.656 15.6133 152.656 17.2C152.656 18.768 152.843 20.0653 153.216 21.092C153.608 22.1187 154.14 22.884 154.812 23.388C155.503 23.8733 156.287 24.116 157.164 24.116Z" fill="#0077FF"/>
<path d="M195.08 27V24.312L194.96 23.808V19.224C194.96 18.248 194.672 17.496 194.096 16.968C193.536 16.424 192.688 16.152 191.552 16.152C190.8 16.152 190.064 16.28 189.344 16.536C188.624 16.776 188.016 17.104 187.52 17.52L186.56 15.792C187.216 15.264 188 14.864 188.912 14.592C189.84 14.304 190.808 14.16 191.816 14.16C193.56 14.16 194.904 14.584 195.848 15.432C196.792 16.28 197.264 17.576 197.264 19.32V27H195.08ZM190.904 27.144C189.96 27.144 189.128 26.984 188.408 26.664C187.704 26.344 187.16 25.904 186.776 25.344C186.392 24.768 186.2 24.12 186.2 23.4C186.2 22.712 186.36 22.088 186.68 21.528C187.016 20.968 187.552 20.52 188.288 20.184C189.04 19.848 190.048 19.68 191.312 19.68H195.344V21.336H191.408C190.256 21.336 189.48 21.528 189.08 21.912C188.68 22.296 188.48 22.76 188.48 23.304C188.48 23.928 188.728 24.432 189.224 24.816C189.72 25.184 190.408 25.368 191.288 25.368C192.152 25.368 192.904 25.176 193.544 24.792C194.2 24.408 194.672 23.848 194.96 23.112L195.416 24.696C195.112 25.448 194.576 26.048 193.808 26.496C193.04 26.928 192.072 27.144 190.904 27.144ZM201.864 27V13.152C201.864 11.904 202.224 10.912 202.944 10.176C203.68 9.424 204.72 9.048 206.064 9.048C206.56 9.048 207.032 9.112 207.48 9.24C207.944 9.352 208.336 9.536 208.656 9.792L207.96 11.544C207.72 11.352 207.448 11.208 207.144 11.112C206.84 11 206.52 10.944 206.184 10.944C205.512 10.944 205 11.136 204.648 11.52C204.296 11.888 204.12 12.44 204.12 13.176V14.88L204.168 15.936V27H201.864ZM199.704 16.176V14.28H207.816V16.176H199.704ZM210.325 27V13.152C210.325 11.904 210.685 10.912 211.405 10.176C212.141 9.424 213.181 9.048 214.525 9.048C215.021 9.048 215.493 9.112 215.941 9.24C216.405 9.352 216.797 9.536 217.117 9.792L216.421 11.544C216.181 11.352 215.909 11.208 215.605 11.112C215.301 11 214.981 10.944 214.645 10.944C213.973 10.944 213.461 11.136 213.109 11.52C212.757 11.888 212.581 12.44 212.581 13.176V14.88L212.629 15.936V27H210.325ZM208.165 16.176V14.28H216.277V16.176H208.165ZM218.461 27V14.28H220.765V27H218.461ZM219.613 11.832C219.165 11.832 218.789 11.688 218.485 11.4C218.197 11.112 218.053 10.76 218.053 10.344C218.053 9.912 218.197 9.552 218.485 9.264C218.789 8.976 219.165 8.832 219.613 8.832C220.061 8.832 220.429 8.976 220.717 9.264C221.021 9.536 221.173 9.88 221.173 10.296C221.173 10.728 221.029 11.096 220.741 11.4C220.453 11.688 220.077 11.832 219.613 11.832ZM225.153 27V9.192H227.457V27H225.153ZM231.856 27V14.28H234.16V27H231.856ZM233.008 11.832C232.56 11.832 232.184 11.688 231.88 11.4C231.592 11.112 231.448 10.76 231.448 10.344C231.448 9.912 231.592 9.552 231.88 9.264C232.184 8.976 232.56 8.832 233.008 8.832C233.456 8.832 233.824 8.976 234.112 9.264C234.416 9.536 234.568 9.88 234.568 10.296C234.568 10.728 234.424 11.096 234.136 11.4C233.848 11.688 233.472 11.832 233.008 11.832ZM246.455 27V24.312L246.335 23.808V19.224C246.335 18.248 246.047 17.496 245.471 16.968C244.911 16.424 244.063 16.152 242.927 16.152C242.175 16.152 241.439 16.28 240.719 16.536C239.999 16.776 239.391 17.104 238.895 17.52L237.935 15.792C238.591 15.264 239.375 14.864 240.287 14.592C241.215 14.304 242.183 14.16 243.191 14.16C244.935 14.16 246.279 14.584 247.223 15.432C248.167 16.28 248.639 17.576 248.639 19.32V27H246.455ZM242.279 27.144C241.335 27.144 240.503 26.984 239.783 26.664C239.079 26.344 238.535 25.904 238.151 25.344C237.767 24.768 237.575 24.12 237.575 23.4C237.575 22.712 237.735 22.088 238.055 21.528C238.391 20.968 238.927 20.52 239.663 20.184C240.415 19.848 241.423 19.68 242.687 19.68H246.719V21.336H242.783C241.631 21.336 240.855 21.528 240.455 21.912C240.055 22.296 239.855 22.76 239.855 23.304C239.855 23.928 240.103 24.432 240.599 24.816C241.095 25.184 241.783 25.368 242.663 25.368C243.527 25.368 244.279 25.176 244.919 24.792C245.575 24.408 246.047 23.848 246.335 23.112L246.791 24.696C246.487 25.448 245.951 26.048 245.183 26.496C244.415 26.928 243.447 27.144 242.279 27.144ZM257.271 27.144C255.991 27.144 254.999 26.8 254.295 26.112C253.591 25.424 253.239 24.44 253.239 23.16V11.496H255.543V23.064C255.543 23.752 255.711 24.28 256.047 24.648C256.399 25.016 256.895 25.2 257.535 25.2C258.255 25.2 258.855 25 259.335 24.6L260.055 26.256C259.703 26.56 259.279 26.784 258.783 26.928C258.303 27.072 257.799 27.144 257.271 27.144ZM251.079 16.176V14.28H259.191V16.176H251.079ZM268.082 27.144C266.722 27.144 265.522 26.864 264.482 26.304C263.458 25.744 262.658 24.976 262.082 24C261.522 23.024 261.242 21.904 261.242 20.64C261.242 19.376 261.514 18.256 262.058 17.28C262.618 16.304 263.378 15.544 264.338 15C265.314 14.44 266.41 14.16 267.626 14.16C268.858 14.16 269.946 14.432 270.89 14.976C271.834 15.52 272.57 16.288 273.098 17.28C273.642 18.256 273.914 19.4 273.914 20.712C273.914 20.808 273.906 20.92 273.89 21.048C273.89 21.176 273.882 21.296 273.866 21.408H263.042V19.752H272.666L271.73 20.328C271.746 19.512 271.578 18.784 271.226 18.144C270.874 17.504 270.386 17.008 269.762 16.656C269.154 16.288 268.442 16.104 267.626 16.104C266.826 16.104 266.114 16.288 265.49 16.656C264.866 17.008 264.378 17.512 264.026 18.168C263.674 18.808 263.498 19.544 263.498 20.376V20.76C263.498 21.608 263.69 22.368 264.074 23.04C264.474 23.696 265.026 24.208 265.73 24.576C266.434 24.944 267.242 25.128 268.154 25.128C268.906 25.128 269.586 25 270.194 24.744C270.818 24.488 271.362 24.104 271.826 23.592L273.098 25.08C272.522 25.752 271.802 26.264 270.938 26.616C270.09 26.968 269.138 27.144 268.082 27.144ZM290.303 27.144C289.247 27.144 288.279 26.904 287.399 26.424C286.535 25.928 285.839 25.2 285.311 24.24C284.799 23.28 284.543 22.08 284.543 20.64C284.543 19.2 284.791 18 285.287 17.04C285.799 16.08 286.487 15.36 287.351 14.88C288.231 14.4 289.215 14.16 290.303 14.16C291.551 14.16 292.655 14.432 293.615 14.976C294.575 15.52 295.335 16.28 295.895 17.256C296.455 18.216 296.735 19.344 296.735 20.64C296.735 21.936 296.455 23.072 295.895 24.048C295.335 25.024 294.575 25.784 293.615 26.328C292.655 26.872 291.551 27.144 290.303 27.144ZM283.559 31.656V14.28H285.767V17.712L285.623 20.664L285.863 23.616V31.656H283.559ZM290.111 25.128C290.927 25.128 291.655 24.944 292.295 24.576C292.951 24.208 293.463 23.688 293.831 23.016C294.215 22.328 294.407 21.536 294.407 20.64C294.407 19.728 294.215 18.944 293.831 18.288C293.463 17.616 292.951 17.096 292.295 16.728C291.655 16.36 290.927 16.176 290.111 16.176C289.311 16.176 288.583 16.36 287.927 16.728C287.287 17.096 286.775 17.616 286.391 18.288C286.023 18.944 285.839 19.728 285.839 20.64C285.839 21.536 286.023 22.328 286.391 23.016C286.775 23.688 287.287 24.208 287.927 24.576C288.583 24.944 289.311 25.128 290.111 25.128ZM299.918 27V14.28H302.126V17.736L301.91 16.872C302.262 15.992 302.854 15.32 303.686 14.856C304.518 14.392 305.542 14.16 306.758 14.16V16.392C306.662 16.376 306.566 16.368 306.47 16.368C306.39 16.368 306.31 16.368 306.23 16.368C304.998 16.368 304.022 16.736 303.302 17.472C302.582 18.208 302.222 19.272 302.222 20.664V27H299.918ZM314.929 27.144C313.649 27.144 312.513 26.864 311.521 26.304C310.529 25.744 309.745 24.976 309.169 24C308.593 23.008 308.305 21.888 308.305 20.64C308.305 19.376 308.593 18.256 309.169 17.28C309.745 16.304 310.529 15.544 311.521 15C312.513 14.44 313.649 14.16 314.929 14.16C316.193 14.16 317.321 14.44 318.313 15C319.321 15.544 320.105 16.304 320.665 17.28C321.241 18.24 321.529 19.36 321.529 20.64C321.529 21.904 321.241 23.024 320.665 24C320.105 24.976 319.321 25.744 318.313 26.304C317.321 26.864 316.193 27.144 314.929 27.144ZM314.929 25.128C315.745 25.128 316.473 24.944 317.113 24.576C317.769 24.208 318.281 23.688 318.649 23.016C319.017 22.328 319.201 21.536 319.201 20.64C319.201 19.728 319.017 18.944 318.649 18.288C318.281 17.616 317.769 17.096 317.113 16.728C316.473 16.36 315.745 16.176 314.929 16.176C314.113 16.176 313.385 16.36 312.745 16.728C312.105 17.096 311.593 17.616 311.209 18.288C310.825 18.944 310.633 19.728 310.633 20.64C310.633 21.536 310.825 22.328 311.209 23.016C311.593 23.688 312.105 24.208 312.745 24.576C313.385 24.944 314.113 25.128 314.929 25.128ZM330.283 31.8C329.115 31.8 327.979 31.632 326.875 31.296C325.787 30.976 324.899 30.512 324.211 29.904L325.315 28.128C325.907 28.64 326.635 29.04 327.499 29.328C328.363 29.632 329.267 29.784 330.211 29.784C331.715 29.784 332.819 29.432 333.523 28.728C334.227 28.024 334.579 26.952 334.579 25.512V22.824L334.819 20.304L334.699 17.76V14.28H336.883V25.272C336.883 27.512 336.323 29.16 335.203 30.216C334.083 31.272 332.443 31.8 330.283 31.8ZM329.995 26.472C328.763 26.472 327.659 26.216 326.683 25.704C325.723 25.176 324.955 24.448 324.379 23.52C323.819 22.592 323.539 21.52 323.539 20.304C323.539 19.072 323.819 18 324.379 17.088C324.955 16.16 325.723 15.44 326.683 14.928C327.659 14.416 328.763 14.16 329.995 14.16C331.083 14.16 332.075 14.384 332.971 14.832C333.867 15.264 334.579 15.936 335.107 16.848C335.651 17.76 335.923 18.912 335.923 20.304C335.923 21.68 335.651 22.824 335.107 23.736C334.579 24.648 333.867 25.336 332.971 25.8C332.075 26.248 331.083 26.472 329.995 26.472ZM330.259 24.456C331.107 24.456 331.859 24.28 332.515 23.928C333.171 23.576 333.683 23.088 334.051 22.464C334.435 21.84 334.627 21.12 334.627 20.304C334.627 19.488 334.435 18.768 334.051 18.144C333.683 17.52 333.171 17.04 332.515 16.704C331.859 16.352 331.107 16.176 330.259 16.176C329.411 16.176 328.651 16.352 327.979 16.704C327.323 17.04 326.803 17.52 326.419 18.144C326.051 18.768 325.867 19.488 325.867 20.304C325.867 21.12 326.051 21.84 326.419 22.464C326.803 23.088 327.323 23.576 327.979 23.928C328.651 24.28 329.411 24.456 330.259 24.456ZM341.286 27V14.28H343.494V17.736L343.278 16.872C343.63 15.992 344.222 15.32 345.054 14.856C345.886 14.392 346.91 14.16 348.126 14.16V16.392C348.03 16.376 347.934 16.368 347.838 16.368C347.758 16.368 347.678 16.368 347.598 16.368C346.366 16.368 345.39 16.736 344.67 17.472C343.95 18.208 343.59 19.272 343.59 20.664V27H341.286ZM357.924 27V24.312L357.804 23.808V19.224C357.804 18.248 357.516 17.496 356.94 16.968C356.38 16.424 355.532 16.152 354.396 16.152C353.644 16.152 352.908 16.28 352.188 16.536C351.468 16.776 350.86 17.104 350.364 17.52L349.404 15.792C350.06 15.264 350.844 14.864 351.756 14.592C352.684 14.304 353.652 14.16 354.66 14.16C356.404 14.16 357.748 14.584 358.692 15.432C359.636 16.28 360.108 17.576 360.108 19.32V27H357.924ZM353.748 27.144C352.804 27.144 351.972 26.984 351.252 26.664C350.548 26.344 350.004 25.904 349.62 25.344C349.236 24.768 349.044 24.12 349.044 23.4C349.044 22.712 349.204 22.088 349.524 21.528C349.86 20.968 350.396 20.52 351.132 20.184C351.884 19.848 352.892 19.68 354.156 19.68H358.188V21.336H354.252C353.1 21.336 352.324 21.528 351.924 21.912C351.524 22.296 351.324 22.76 351.324 23.304C351.324 23.928 351.572 24.432 352.068 24.816C352.564 25.184 353.252 25.368 354.132 25.368C354.996 25.368 355.748 25.176 356.388 24.792C357.044 24.408 357.516 23.848 357.804 23.112L358.26 24.696C357.956 25.448 357.42 26.048 356.652 26.496C355.884 26.928 354.916 27.144 353.748 27.144ZM380.284 14.16C381.308 14.16 382.212 14.36 382.996 14.76C383.78 15.16 384.388 15.768 384.82 16.584C385.268 17.4 385.492 18.432 385.492 19.68V27H383.188V19.944C383.188 18.712 382.9 17.784 382.324 17.16C381.748 16.536 380.94 16.224 379.9 16.224C379.132 16.224 378.46 16.384 377.884 16.704C377.308 17.024 376.86 17.496 376.54 18.12C376.236 18.744 376.084 19.52 376.084 20.448V27H373.78V19.944C373.78 18.712 373.492 17.784 372.916 17.16C372.356 16.536 371.548 16.224 370.492 16.224C369.74 16.224 369.076 16.384 368.5 16.704C367.924 17.024 367.476 17.496 367.156 18.12C366.836 18.744 366.676 19.52 366.676 20.448V27H364.372V14.28H366.58V17.664L366.22 16.8C366.62 15.968 367.236 15.32 368.068 14.856C368.9 14.392 369.868 14.16 370.972 14.16C372.188 14.16 373.236 14.464 374.116 15.072C374.996 15.664 375.572 16.568 375.844 17.784L374.908 17.4C375.292 16.424 375.964 15.64 376.924 15.048C377.884 14.456 379.004 14.16 380.284 14.16ZM393.379 27.144C392.323 27.144 391.315 27 390.355 26.712C389.411 26.424 388.667 26.072 388.123 25.656L389.083 23.832C389.627 24.2 390.299 24.512 391.099 24.768C391.899 25.024 392.715 25.152 393.547 25.152C394.619 25.152 395.387 25 395.851 24.696C396.331 24.392 396.571 23.968 396.571 23.424C396.571 23.024 396.427 22.712 396.139 22.488C395.851 22.264 395.467 22.096 394.987 21.984C394.523 21.872 394.003 21.776 393.427 21.696C392.851 21.6 392.275 21.488 391.699 21.36C391.123 21.216 390.595 21.024 390.115 20.784C389.635 20.528 389.251 20.184 388.963 19.752C388.675 19.304 388.531 18.712 388.531 17.976C388.531 17.208 388.747 16.536 389.179 15.96C389.611 15.384 390.219 14.944 391.003 14.64C391.803 14.32 392.747 14.16 393.835 14.16C394.667 14.16 395.507 14.264 396.355 14.472C397.219 14.664 397.923 14.944 398.467 15.312L397.483 17.136C396.907 16.752 396.307 16.488 395.683 16.344C395.059 16.2 394.435 16.128 393.811 16.128C392.803 16.128 392.051 16.296 391.555 16.632C391.059 16.952 390.811 17.368 390.811 17.88C390.811 18.312 390.955 18.648 391.243 18.888C391.547 19.112 391.931 19.288 392.395 19.416C392.875 19.544 393.403 19.656 393.979 19.752C394.555 19.832 395.131 19.944 395.707 20.088C396.283 20.216 396.803 20.4 397.267 20.64C397.747 20.88 398.131 21.216 398.419 21.648C398.723 22.08 398.875 22.656 398.875 23.376C398.875 24.144 398.651 24.808 398.203 25.368C397.755 25.928 397.123 26.368 396.307 26.688C395.491 26.992 394.515 27.144 393.379 27.144ZM413.744 27.144C412.448 27.144 411.288 26.864 410.264 26.304C409.256 25.744 408.464 24.976 407.888 24C407.312 23.024 407.024 21.904 407.024 20.64C407.024 19.376 407.312 18.256 407.888 17.28C408.464 16.304 409.256 15.544 410.264 15C411.288 14.44 412.448 14.16 413.744 14.16C414.896 14.16 415.92 14.392 416.816 14.856C417.728 15.304 418.432 15.976 418.928 16.872L417.176 18C416.76 17.376 416.248 16.92 415.64 16.632C415.048 16.328 414.408 16.176 413.72 16.176C412.888 16.176 412.144 16.36 411.488 16.728C410.832 17.096 410.312 17.616 409.928 18.288C409.544 18.944 409.352 19.728 409.352 20.64C409.352 21.552 409.544 22.344 409.928 23.016C410.312 23.688 410.832 24.208 411.488 24.576C412.144 24.944 412.888 25.128 413.72 25.128C414.408 25.128 415.048 24.984 415.64 24.696C416.248 24.392 416.76 23.928 417.176 23.304L418.928 24.408C418.432 25.288 417.728 25.968 416.816 26.448C415.92 26.912 414.896 27.144 413.744 27.144ZM427.171 27.144C425.891 27.144 424.755 26.864 423.763 26.304C422.771 25.744 421.987 24.976 421.411 24C420.835 23.008 420.547 21.888 420.547 20.64C420.547 19.376 420.835 18.256 421.411 17.28C421.987 16.304 422.771 15.544 423.763 15C424.755 14.44 425.891 14.16 427.171 14.16C428.435 14.16 429.563 14.44 430.555 15C431.563 15.544 432.347 16.304 432.907 17.28C433.483 18.24 433.771 19.36 433.771 20.64C433.771 21.904 433.483 23.024 432.907 24C432.347 24.976 431.563 25.744 430.555 26.304C429.563 26.864 428.435 27.144 427.171 27.144ZM427.171 25.128C427.987 25.128 428.715 24.944 429.355 24.576C430.011 24.208 430.523 23.688 430.891 23.016C431.259 22.328 431.443 21.536 431.443 20.64C431.443 19.728 431.259 18.944 430.891 18.288C430.523 17.616 430.011 17.096 429.355 16.728C428.715 16.36 427.987 16.176 427.171 16.176C426.355 16.176 425.627 16.36 424.987 16.728C424.347 17.096 423.835 17.616 423.451 18.288C423.067 18.944 422.875 19.728 422.875 20.64C422.875 21.536 423.067 22.328 423.451 23.016C423.835 23.688 424.347 24.208 424.987 24.576C425.627 24.944 426.355 25.128 427.171 25.128ZM443.749 14.16C444.789 14.16 445.701 14.36 446.485 14.76C447.285 15.16 447.909 15.768 448.357 16.584C448.805 17.4 449.029 18.432 449.029 19.68V27H446.725V19.944C446.725 18.712 446.421 17.784 445.813 17.16C445.221 16.536 444.381 16.224 443.293 16.224C442.477 16.224 441.765 16.384 441.157 16.704C440.549 17.024 440.077 17.496 439.741 18.12C439.421 18.744 439.261 19.52 439.261 20.448V27H436.957V14.28H439.165V17.712L438.805 16.8C439.221 15.968 439.861 15.32 440.725 14.856C441.589 14.392 442.597 14.16 443.749 14.16ZM460.085 14.16C461.125 14.16 462.037 14.36 462.821 14.76C463.621 15.16 464.245 15.768 464.693 16.584C465.141 17.4 465.365 18.432 465.365 19.68V27H463.061V19.944C463.061 18.712 462.757 17.784 462.149 17.16C461.557 16.536 460.717 16.224 459.629 16.224C458.813 16.224 458.101 16.384 457.493 16.704C456.885 17.024 456.413 17.496 456.077 18.12C455.757 18.744 455.597 19.52 455.597 20.448V27H453.293V14.28H455.501V17.712L455.141 16.8C455.557 15.968 456.197 15.32 457.061 14.856C457.925 14.392 458.933 14.16 460.085 14.16ZM475.293 27.144C473.933 27.144 472.733 26.864 471.693 26.304C470.669 25.744 469.869 24.976 469.293 24C468.733 23.024 468.453 21.904 468.453 20.64C468.453 19.376 468.725 18.256 469.269 17.28C469.829 16.304 470.589 15.544 471.549 15C472.525 14.44 473.621 14.16 474.837 14.16C476.069 14.16 477.157 14.432 478.101 14.976C479.045 15.52 479.781 16.288 480.309 17.28C480.853 18.256 481.125 19.4 481.125 20.712C481.125 20.808 481.117 20.92 481.101 21.048C481.101 21.176 481.093 21.296 481.077 21.408H470.253V19.752H479.877L478.941 20.328C478.957 19.512 478.789 18.784 478.437 18.144C478.085 17.504 477.597 17.008 476.973 16.656C476.365 16.288 475.653 16.104 474.837 16.104C474.037 16.104 473.325 16.288 472.701 16.656C472.077 17.008 471.589 17.512 471.237 18.168C470.885 18.808 470.709 19.544 470.709 20.376V20.76C470.709 21.608 470.901 22.368 471.285 23.04C471.685 23.696 472.237 24.208 472.941 24.576C473.645 24.944 474.453 25.128 475.365 25.128C476.117 25.128 476.797 25 477.405 24.744C478.029 24.488 478.573 24.104 479.037 23.592L480.309 25.08C479.733 25.752 479.013 26.264 478.149 26.616C477.301 26.968 476.349 27.144 475.293 27.144ZM489.869 27.144C488.573 27.144 487.413 26.864 486.389 26.304C485.381 25.744 484.589 24.976 484.013 24C483.437 23.024 483.149 21.904 483.149 20.64C483.149 19.376 483.437 18.256 484.013 17.28C484.589 16.304 485.381 15.544 486.389 15C487.413 14.44 488.573 14.16 489.869 14.16C491.021 14.16 492.045 14.392 492.941 14.856C493.853 15.304 494.557 15.976 495.053 16.872L493.301 18C492.885 17.376 492.373 16.92 491.765 16.632C491.173 16.328 490.533 16.176 489.845 16.176C489.013 16.176 488.269 16.36 487.613 16.728C486.957 17.096 486.437 17.616 486.053 18.288C485.669 18.944 485.477 19.728 485.477 20.64C485.477 21.552 485.669 22.344 486.053 23.016C486.437 23.688 486.957 24.208 487.613 24.576C488.269 24.944 489.013 25.128 489.845 25.128C490.533 25.128 491.173 24.984 491.765 24.696C492.373 24.392 492.885 23.928 493.301 23.304L495.053 24.408C494.557 25.288 493.853 25.968 492.941 26.448C492.045 26.912 491.021 27.144 489.869 27.144ZM502.568 27.144C501.288 27.144 500.296 26.8 499.592 26.112C498.888 25.424 498.536 24.44 498.536 23.16V11.496H500.84V23.064C500.84 23.752 501.008 24.28 501.344 24.648C501.696 25.016 502.192 25.2 502.832 25.2C503.552 25.2 504.152 25 504.632 24.6L505.352 26.256C505 26.56 504.576 26.784 504.08 26.928C503.6 27.072 503.096 27.144 502.568 27.144ZM496.376 16.176V14.28H504.488V16.176H496.376ZM513.379 27.144C512.019 27.144 510.819 26.864 509.779 26.304C508.755 25.744 507.955 24.976 507.379 24C506.819 23.024 506.539 21.904 506.539 20.64C506.539 19.376 506.811 18.256 507.355 17.28C507.915 16.304 508.675 15.544 509.635 15C510.611 14.44 511.707 14.16 512.923 14.16C514.155 14.16 515.243 14.432 516.187 14.976C517.131 15.52 517.867 16.288 518.395 17.28C518.939 18.256 519.211 19.4 519.211 20.712C519.211 20.808 519.203 20.92 519.187 21.048C519.187 21.176 519.179 21.296 519.163 21.408H508.339V19.752H517.963L517.027 20.328C517.043 19.512 516.875 18.784 516.523 18.144C516.171 17.504 515.683 17.008 515.059 16.656C514.451 16.288 513.739 16.104 512.923 16.104C512.123 16.104 511.411 16.288 510.787 16.656C510.163 17.008 509.675 17.512 509.323 18.168C508.971 18.808 508.795 19.544 508.795 20.376V20.76C508.795 21.608 508.987 22.368 509.371 23.04C509.771 23.696 510.323 24.208 511.027 24.576C511.731 24.944 512.539 25.128 513.451 25.128C514.203 25.128 514.883 25 515.491 24.744C516.115 24.488 516.659 24.104 517.123 23.592L518.395 25.08C517.819 25.752 517.099 26.264 516.235 26.616C515.387 26.968 514.435 27.144 513.379 27.144ZM527.667 27.144C526.435 27.144 525.331 26.872 524.355 26.328C523.395 25.784 522.635 25.024 522.075 24.048C521.515 23.072 521.235 21.936 521.235 20.64C521.235 19.344 521.515 18.216 522.075 17.256C522.635 16.28 523.395 15.52 524.355 14.976C525.331 14.432 526.435 14.16 527.667 14.16C528.739 14.16 529.707 14.4 530.571 14.88C531.435 15.36 532.123 16.08 532.635 17.04C533.163 18 533.427 19.2 533.427 20.64C533.427 22.08 533.171 23.28 532.659 24.24C532.163 25.2 531.483 25.928 530.619 26.424C529.755 26.904 528.771 27.144 527.667 27.144ZM527.859 25.128C528.659 25.128 529.379 24.944 530.019 24.576C530.675 24.208 531.187 23.688 531.555 23.016C531.939 22.328 532.131 21.536 532.131 20.64C532.131 19.728 531.939 18.944 531.555 18.288C531.187 17.616 530.675 17.096 530.019 16.728C529.379 16.36 528.659 16.176 527.859 16.176C527.043 16.176 526.315 16.36 525.675 16.728C525.035 17.096 524.523 17.616 524.139 18.288C523.755 18.944 523.563 19.728 523.563 20.64C523.563 21.536 523.755 22.328 524.139 23.016C524.523 23.688 525.035 24.208 525.675 24.576C526.315 24.944 527.043 25.128 527.859 25.128ZM532.203 27V23.568L532.347 20.616L532.107 17.664V9.192H534.411V27H532.203Z" fill="black"/>
<rect x="116" y="36" width="65" height="6" fill="#362F8A"/>
<rect y="79" width="118" height="6" fill="#362F8A"/>
<circle cx="124.5" cy="81.5" r="8.5" fill="#362F8A"/>
<circle cx="124.5" cy="81.5" r="6.5" fill="white"/>
<circle cx="124.5" cy="81.5" r="4.5" fill="#362F8A"/>
<rect x="61" y="82" width="2" height="9" fill="#362F8A"/>
<rect x="186" y="82" width="2" height="9" fill="#D9D9D9"/>
<rect x="248" y="82" width="2" height="9" fill="#D9D9D9"/>
<rect x="310" y="82" width="2" height="9" fill="#D9D9D9"/>
<rect x="365" y="83" width="2" height="9" fill="#D9D9D9"/>
<rect x="427" y="83" width="2" height="9" fill="#D9D9D9"/>
<rect x="489" y="83" width="2" height="9" fill="#D9D9D9"/>
<rect x="551" y="83" width="2" height="9" fill="#D9D9D9"/>
<path d="M119.357 110.108C118.457 110.108 117.599 109.964 116.783 109.676C115.967 109.376 115.319 108.98 114.839 108.488L115.469 107.462C115.865 107.882 116.405 108.23 117.089 108.506C117.785 108.782 118.535 108.92 119.339 108.92C120.407 108.92 121.217 108.686 121.769 108.218C122.333 107.738 122.615 107.114 122.615 106.346C122.615 105.806 122.483 105.344 122.219 104.96C121.967 104.564 121.535 104.258 120.923 104.042C120.311 103.826 119.471 103.718 118.403 103.718H115.721L116.369 97.4H123.263V98.552H116.891L117.557 97.922L116.999 103.214L116.333 102.566H118.691C119.963 102.566 120.983 102.722 121.751 103.034C122.519 103.346 123.071 103.784 123.407 104.348C123.755 104.9 123.929 105.548 123.929 106.292C123.929 107 123.761 107.648 123.425 108.236C123.089 108.812 122.585 109.268 121.913 109.604C121.241 109.94 120.389 110.108 119.357 110.108ZM130.597 110.108C129.625 110.108 128.761 109.856 128.005 109.352C127.249 108.836 126.655 108.104 126.223 107.156C125.791 106.196 125.575 105.044 125.575 103.7C125.575 102.356 125.791 101.21 126.223 100.262C126.655 99.302 127.249 98.57 128.005 98.066C128.761 97.55 129.625 97.292 130.597 97.292C131.569 97.292 132.433 97.55 133.189 98.066C133.945 98.57 134.539 99.302 134.971 100.262C135.415 101.21 135.637 102.356 135.637 103.7C135.637 105.044 135.415 106.196 134.971 107.156C134.539 108.104 133.945 108.836 133.189 109.352C132.433 109.856 131.569 110.108 130.597 110.108ZM130.597 108.92C131.341 108.92 131.989 108.722 132.541 108.326C133.093 107.918 133.525 107.33 133.837 106.562C134.149 105.782 134.305 104.828 134.305 103.7C134.305 102.572 134.149 101.624 133.837 100.856C133.525 100.076 133.093 99.488 132.541 99.092C131.989 98.684 131.341 98.48 130.597 98.48C129.877 98.48 129.235 98.684 128.671 99.092C128.107 99.488 127.669 100.076 127.357 100.856C127.045 101.624 126.889 102.572 126.889 103.7C126.889 104.828 127.045 105.782 127.357 106.562C127.669 107.33 128.107 107.918 128.671 108.326C129.235 108.722 129.877 108.92 130.597 108.92Z" fill="black"/>
<path d="M180.42 110L185.856 97.976L186.252 98.552H178.458L179.124 97.922V100.91H177.846V97.4H187.098V98.318L181.824 110H180.42ZM192.449 110.108C191.549 110.108 190.691 109.964 189.875 109.676C189.059 109.376 188.411 108.98 187.931 108.488L188.561 107.462C188.957 107.882 189.497 108.23 190.181 108.506C190.877 108.782 191.627 108.92 192.431 108.92C193.499 108.92 194.309 108.686 194.861 108.218C195.425 107.738 195.707 107.114 195.707 106.346C195.707 105.806 195.575 105.344 195.311 104.96C195.059 104.564 194.627 104.258 194.015 104.042C193.403 103.826 192.563 103.718 191.495 103.718H188.813L189.461 97.4H196.355V98.552H189.983L190.649 97.922L190.091 103.214L189.425 102.566H191.783C193.055 102.566 194.075 102.722 194.843 103.034C195.611 103.346 196.163 103.784 196.499 104.348C196.847 104.9 197.021 105.548 197.021 106.292C197.021 107 196.853 107.648 196.517 108.236C196.181 108.812 195.677 109.268 195.005 109.604C194.333 109.94 193.481 110.108 192.449 110.108Z" fill="black"/>
<path d="M236.462 110V97.94L237.038 98.552H233.492V97.4H237.758V110H236.462ZM245.792 110.108C244.82 110.108 243.956 109.856 243.2 109.352C242.444 108.836 241.85 108.104 241.418 107.156C240.986 106.196 240.77 105.044 240.77 103.7C240.77 102.356 240.986 101.21 241.418 100.262C241.85 99.302 242.444 98.57 243.2 98.066C243.956 97.55 244.82 97.292 245.792 97.292C246.764 97.292 247.628 97.55 248.384 98.066C249.14 98.57 249.734 99.302 250.166 100.262C250.61 101.21 250.832 102.356 250.832 103.7C250.832 105.044 250.61 106.196 250.166 107.156C249.734 108.104 249.14 108.836 248.384 109.352C247.628 109.856 246.764 110.108 245.792 110.108ZM245.792 108.92C246.536 108.92 247.184 108.722 247.736 108.326C248.288 107.918 248.72 107.33 249.032 106.562C249.344 105.782 249.5 104.828 249.5 103.7C249.5 102.572 249.344 101.624 249.032 100.856C248.72 100.076 248.288 99.488 247.736 99.092C247.184 98.684 246.536 98.48 245.792 98.48C245.072 98.48 244.43 98.684 243.866 99.092C243.302 99.488 242.864 100.076 242.552 100.856C242.24 101.624 242.084 102.572 242.084 103.7C242.084 104.828 242.24 105.782 242.552 106.562C242.864 107.33 243.302 107.918 243.866 108.326C244.43 108.722 245.072 108.92 245.792 108.92ZM257.71 110.108C256.738 110.108 255.874 109.856 255.118 109.352C254.362 108.836 253.768 108.104 253.336 107.156C252.904 106.196 252.688 105.044 252.688 103.7C252.688 102.356 252.904 101.21 253.336 100.262C253.768 99.302 254.362 98.57 255.118 98.066C255.874 97.55 256.738 97.292 257.71 97.292C258.682 97.292 259.546 97.55 260.302 98.066C261.058 98.57 261.652 99.302 262.084 100.262C262.528 101.21 262.75 102.356 262.75 103.7C262.75 105.044 262.528 106.196 262.084 107.156C261.652 108.104 261.058 108.836 260.302 109.352C259.546 109.856 258.682 110.108 257.71 110.108ZM257.71 108.92C258.454 108.92 259.102 108.722 259.654 108.326C260.206 107.918 260.638 107.33 260.95 106.562C261.262 105.782 261.418 104.828 261.418 103.7C261.418 102.572 261.262 101.624 260.95 100.856C260.638 100.076 260.206 99.488 259.654 99.092C259.102 98.684 258.454 98.48 257.71 98.48C256.99 98.48 256.348 98.684 255.784 99.092C255.22 99.488 254.782 100.076 254.47 100.856C254.158 101.624 254.002 102.572 254.002 103.7C254.002 104.828 254.158 105.782 254.47 106.562C254.782 107.33 255.22 107.918 255.784 108.326C256.348 108.722 256.99 108.92 257.71 108.92Z" fill="black"/>
<path d="M299.323 110V97.94L299.899 98.552H296.353V97.4H300.619V110H299.323ZM307.609 110.108C306.709 110.108 305.851 109.964 305.035 109.676C304.219 109.376 303.571 108.98 303.091 108.488L303.721 107.462C304.117 107.882 304.657 108.23 305.341 108.506C306.037 108.782 306.787 108.92 307.591 108.92C308.659 108.92 309.469 108.686 310.021 108.218C310.585 107.738 310.867 107.114 310.867 106.346C310.867 105.806 310.735 105.344 310.471 104.96C310.219 104.564 309.787 104.258 309.175 104.042C308.563 103.826 307.723 103.718 306.655 103.718H303.973L304.621 97.4H311.515V98.552H305.143L305.809 97.922L305.251 103.214L304.585 102.566H306.943C308.215 102.566 309.235 102.722 310.003 103.034C310.771 103.346 311.323 103.784 311.659 104.348C312.007 104.9 312.181 105.548 312.181 106.292C312.181 107 312.013 107.648 311.677 108.236C311.341 108.812 310.837 109.268 310.165 109.604C309.493 109.94 308.641 110.108 307.609 110.108ZM318.849 110.108C317.877 110.108 317.013 109.856 316.257 109.352C315.501 108.836 314.907 108.104 314.475 107.156C314.043 106.196 313.827 105.044 313.827 103.7C313.827 102.356 314.043 101.21 314.475 100.262C314.907 99.302 315.501 98.57 316.257 98.066C317.013 97.55 317.877 97.292 318.849 97.292C319.821 97.292 320.685 97.55 321.441 98.066C322.197 98.57 322.791 99.302 323.223 100.262C323.667 101.21 323.889 102.356 323.889 103.7C323.889 105.044 323.667 106.196 323.223 107.156C322.791 108.104 322.197 108.836 321.441 109.352C320.685 109.856 319.821 110.108 318.849 110.108ZM318.849 108.92C319.593 108.92 320.241 108.722 320.793 108.326C321.345 107.918 321.777 107.33 322.089 106.562C322.401 105.782 322.557 104.828 322.557 103.7C322.557 102.572 322.401 101.624 322.089 100.856C321.777 100.076 321.345 99.488 320.793 99.092C320.241 98.684 319.593 98.48 318.849 98.48C318.129 98.48 317.487 98.684 316.923 99.092C316.359 99.488 315.921 100.076 315.609 100.856C315.297 101.624 315.141 102.572 315.141 103.7C315.141 104.828 315.297 105.782 315.609 106.562C315.921 107.33 316.359 107.918 316.923 108.326C317.487 108.722 318.129 108.92 318.849 108.92Z" fill="black"/>
<path d="M349.186 110V109.082L354.424 103.952C354.904 103.484 355.264 103.076 355.504 102.728C355.744 102.368 355.906 102.032 355.99 101.72C356.074 101.408 356.116 101.114 356.116 100.838C356.116 100.106 355.864 99.53 355.36 99.11C354.868 98.69 354.136 98.48 353.164 98.48C352.42 98.48 351.76 98.594 351.184 98.822C350.62 99.05 350.134 99.404 349.726 99.884L348.808 99.092C349.3 98.516 349.93 98.072 350.698 97.76C351.466 97.448 352.324 97.292 353.272 97.292C354.124 97.292 354.862 97.43 355.486 97.706C356.11 97.97 356.59 98.36 356.926 98.876C357.274 99.392 357.448 99.998 357.448 100.694C357.448 101.102 357.388 101.504 357.268 101.9C357.16 102.296 356.956 102.716 356.656 103.16C356.368 103.592 355.942 104.084 355.378 104.636L350.572 109.352L350.212 108.848H358.024V110H349.186ZM364.638 110.108C363.666 110.108 362.802 109.856 362.046 109.352C361.29 108.836 360.696 108.104 360.264 107.156C359.832 106.196 359.616 105.044 359.616 103.7C359.616 102.356 359.832 101.21 360.264 100.262C360.696 99.302 361.29 98.57 362.046 98.066C362.802 97.55 363.666 97.292 364.638 97.292C365.61 97.292 366.474 97.55 367.23 98.066C367.986 98.57 368.58 99.302 369.012 100.262C369.456 101.21 369.678 102.356 369.678 103.7C369.678 105.044 369.456 106.196 369.012 107.156C368.58 108.104 367.986 108.836 367.23 109.352C366.474 109.856 365.61 110.108 364.638 110.108ZM364.638 108.92C365.382 108.92 366.03 108.722 366.582 108.326C367.134 107.918 367.566 107.33 367.878 106.562C368.19 105.782 368.346 104.828 368.346 103.7C368.346 102.572 368.19 101.624 367.878 100.856C367.566 100.076 367.134 99.488 366.582 99.092C366.03 98.684 365.382 98.48 364.638 98.48C363.918 98.48 363.276 98.684 362.712 99.092C362.148 99.488 361.71 100.076 361.398 100.856C361.086 101.624 360.93 102.572 360.93 103.7C360.93 104.828 361.086 105.782 361.398 106.562C361.71 107.33 362.148 107.918 362.712 108.326C363.276 108.722 363.918 108.92 364.638 108.92ZM376.556 110.108C375.584 110.108 374.72 109.856 373.964 109.352C373.208 108.836 372.614 108.104 372.182 107.156C371.75 106.196 371.534 105.044 371.534 103.7C371.534 102.356 371.75 101.21 372.182 100.262C372.614 99.302 373.208 98.57 373.964 98.066C374.72 97.55 375.584 97.292 376.556 97.292C377.528 97.292 378.392 97.55 379.148 98.066C379.904 98.57 380.498 99.302 380.93 100.262C381.374 101.21 381.596 102.356 381.596 103.7C381.596 105.044 381.374 106.196 380.93 107.156C380.498 108.104 379.904 108.836 379.148 109.352C378.392 109.856 377.528 110.108 376.556 110.108ZM376.556 108.92C377.3 108.92 377.948 108.722 378.5 108.326C379.052 107.918 379.484 107.33 379.796 106.562C380.108 105.782 380.264 104.828 380.264 103.7C380.264 102.572 380.108 101.624 379.796 100.856C379.484 100.076 379.052 99.488 378.5 99.092C377.948 98.684 377.3 98.48 376.556 98.48C375.836 98.48 375.194 98.684 374.63 99.092C374.066 99.488 373.628 100.076 373.316 100.856C373.004 101.624 372.848 102.572 372.848 103.7C372.848 104.828 373.004 105.782 373.316 106.562C373.628 107.33 374.066 107.918 374.63 108.326C375.194 108.722 375.836 108.92 376.556 108.92Z" fill="black"/>
<path d="M414.7 110.108C413.788 110.108 412.924 109.964 412.108 109.676C411.304 109.376 410.656 108.98 410.164 108.488L410.794 107.462C411.202 107.882 411.748 108.23 412.432 108.506C413.128 108.782 413.884 108.92 414.7 108.92C415.744 108.92 416.542 108.692 417.094 108.236C417.658 107.78 417.94 107.168 417.94 106.4C417.94 105.632 417.664 105.02 417.112 104.564C416.572 104.108 415.714 103.88 414.538 103.88H413.638V102.926L417.526 98.048L417.706 98.552H410.686V97.4H418.786V98.318L414.898 103.196L414.268 102.782H414.754C416.266 102.782 417.394 103.118 418.138 103.79C418.894 104.462 419.272 105.326 419.272 106.382C419.272 107.09 419.104 107.726 418.768 108.29C418.432 108.854 417.922 109.298 417.238 109.622C416.566 109.946 415.72 110.108 414.7 110.108ZM426.12 110.108C425.148 110.108 424.284 109.856 423.528 109.352C422.772 108.836 422.178 108.104 421.746 107.156C421.314 106.196 421.098 105.044 421.098 103.7C421.098 102.356 421.314 101.21 421.746 100.262C422.178 99.302 422.772 98.57 423.528 98.066C424.284 97.55 425.148 97.292 426.12 97.292C427.092 97.292 427.956 97.55 428.712 98.066C429.468 98.57 430.062 99.302 430.494 100.262C430.938 101.21 431.16 102.356 431.16 103.7C431.16 105.044 430.938 106.196 430.494 107.156C430.062 108.104 429.468 108.836 428.712 109.352C427.956 109.856 427.092 110.108 426.12 110.108ZM426.12 108.92C426.864 108.92 427.512 108.722 428.064 108.326C428.616 107.918 429.048 107.33 429.36 106.562C429.672 105.782 429.828 104.828 429.828 103.7C429.828 102.572 429.672 101.624 429.36 100.856C429.048 100.076 428.616 99.488 428.064 99.092C427.512 98.684 426.864 98.48 426.12 98.48C425.4 98.48 424.758 98.684 424.194 99.092C423.63 99.488 423.192 100.076 422.88 100.856C422.568 101.624 422.412 102.572 422.412 103.7C422.412 104.828 422.568 105.782 422.88 106.562C423.192 107.33 423.63 107.918 424.194 108.326C424.758 108.722 425.4 108.92 426.12 108.92ZM438.038 110.108C437.066 110.108 436.202 109.856 435.446 109.352C434.69 108.836 434.096 108.104 433.664 107.156C433.232 106.196 433.016 105.044 433.016 103.7C433.016 102.356 433.232 101.21 433.664 100.262C434.096 99.302 434.69 98.57 435.446 98.066C436.202 97.55 437.066 97.292 438.038 97.292C439.01 97.292 439.874 97.55 440.63 98.066C441.386 98.57 441.98 99.302 442.412 100.262C442.856 101.21 443.078 102.356 443.078 103.7C443.078 105.044 442.856 106.196 442.412 107.156C441.98 108.104 441.386 108.836 440.63 109.352C439.874 109.856 439.01 110.108 438.038 110.108ZM438.038 108.92C438.782 108.92 439.43 108.722 439.982 108.326C440.534 107.918 440.966 107.33 441.278 106.562C441.59 105.782 441.746 104.828 441.746 103.7C441.746 102.572 441.59 101.624 441.278 100.856C440.966 100.076 440.534 99.488 439.982 99.092C439.43 98.684 438.782 98.48 438.038 98.48C437.318 98.48 436.676 98.684 436.112 99.092C435.548 99.488 435.11 100.076 434.798 100.856C434.486 101.624 434.33 102.572 434.33 103.7C434.33 104.828 434.486 105.782 434.798 106.562C435.11 107.33 435.548 107.918 436.112 108.326C436.676 108.722 437.318 108.92 438.038 108.92Z" fill="black"/>
<path d="M479.398 110.108C478.498 110.108 477.64 109.964 476.824 109.676C476.008 109.376 475.36 108.98 474.88 108.488L475.51 107.462C475.906 107.882 476.446 108.23 477.13 108.506C477.826 108.782 478.576 108.92 479.38 108.92C480.448 108.92 481.258 108.686 481.81 108.218C482.374 107.738 482.656 107.114 482.656 106.346C482.656 105.806 482.524 105.344 482.26 104.96C482.008 104.564 481.576 104.258 480.964 104.042C480.352 103.826 479.512 103.718 478.444 103.718H475.762L476.41 97.4H483.304V98.552H476.932L477.598 97.922L477.04 103.214L476.374 102.566H478.732C480.004 102.566 481.024 102.722 481.792 103.034C482.56 103.346 483.112 103.784 483.448 104.348C483.796 104.9 483.97 105.548 483.97 106.292C483.97 107 483.802 107.648 483.466 108.236C483.13 108.812 482.626 109.268 481.954 109.604C481.282 109.94 480.43 110.108 479.398 110.108ZM490.638 110.108C489.666 110.108 488.802 109.856 488.046 109.352C487.29 108.836 486.696 108.104 486.264 107.156C485.832 106.196 485.616 105.044 485.616 103.7C485.616 102.356 485.832 101.21 486.264 100.262C486.696 99.302 487.29 98.57 488.046 98.066C488.802 97.55 489.666 97.292 490.638 97.292C491.61 97.292 492.474 97.55 493.23 98.066C493.986 98.57 494.58 99.302 495.012 100.262C495.456 101.21 495.678 102.356 495.678 103.7C495.678 105.044 495.456 106.196 495.012 107.156C494.58 108.104 493.986 108.836 493.23 109.352C492.474 109.856 491.61 110.108 490.638 110.108ZM490.638 108.92C491.382 108.92 492.03 108.722 492.582 108.326C493.134 107.918 493.566 107.33 493.878 106.562C494.19 105.782 494.346 104.828 494.346 103.7C494.346 102.572 494.19 101.624 493.878 100.856C493.566 100.076 493.134 99.488 492.582 99.092C492.03 98.684 491.382 98.48 490.638 98.48C489.918 98.48 489.276 98.684 488.712 99.092C488.148 99.488 487.71 100.076 487.398 100.856C487.086 101.624 486.93 102.572 486.93 103.7C486.93 104.828 487.086 105.782 487.398 106.562C487.71 107.33 488.148 107.918 488.712 108.326C489.276 108.722 489.918 108.92 490.638 108.92ZM502.556 110.108C501.584 110.108 500.72 109.856 499.964 109.352C499.208 108.836 498.614 108.104 498.182 107.156C497.75 106.196 497.534 105.044 497.534 103.7C497.534 102.356 497.75 101.21 498.182 100.262C498.614 99.302 499.208 98.57 499.964 98.066C500.72 97.55 501.584 97.292 502.556 97.292C503.528 97.292 504.392 97.55 505.148 98.066C505.904 98.57 506.498 99.302 506.93 100.262C507.374 101.21 507.596 102.356 507.596 103.7C507.596 105.044 507.374 106.196 506.93 107.156C506.498 108.104 505.904 108.836 505.148 109.352C504.392 109.856 503.528 110.108 502.556 110.108ZM502.556 108.92C503.3 108.92 503.948 108.722 504.5 108.326C505.052 107.918 505.484 107.33 505.796 106.562C506.108 105.782 506.264 104.828 506.264 103.7C506.264 102.572 506.108 101.624 505.796 100.856C505.484 100.076 505.052 99.488 504.5 99.092C503.948 98.684 503.3 98.48 502.556 98.48C501.836 98.48 501.194 98.684 500.63 99.092C500.066 99.488 499.628 100.076 499.316 100.856C499.004 101.624 498.848 102.572 498.848 103.7C498.848 104.828 499.004 105.782 499.316 106.562C499.628 107.33 500.066 107.918 500.63 108.326C501.194 108.722 501.836 108.92 502.556 108.92Z" fill="black"/>
<path d="M534.503 110V97.94L535.079 98.552H531.533V97.4H535.799V110H534.503ZM543.833 110.108C542.861 110.108 541.997 109.856 541.241 109.352C540.485 108.836 539.891 108.104 539.459 107.156C539.027 106.196 538.811 105.044 538.811 103.7C538.811 102.356 539.027 101.21 539.459 100.262C539.891 99.302 540.485 98.57 541.241 98.066C541.997 97.55 542.861 97.292 543.833 97.292C544.805 97.292 545.669 97.55 546.425 98.066C547.181 98.57 547.775 99.302 548.207 100.262C548.651 101.21 548.873 102.356 548.873 103.7C548.873 105.044 548.651 106.196 548.207 107.156C547.775 108.104 547.181 108.836 546.425 109.352C545.669 109.856 544.805 110.108 543.833 110.108ZM543.833 108.92C544.577 108.92 545.225 108.722 545.777 108.326C546.329 107.918 546.761 107.33 547.073 106.562C547.385 105.782 547.541 104.828 547.541 103.7C547.541 102.572 547.385 101.624 547.073 100.856C546.761 100.076 546.329 99.488 545.777 99.092C545.225 98.684 544.577 98.48 543.833 98.48C543.113 98.48 542.471 98.684 541.907 99.092C541.343 99.488 540.905 100.076 540.593 100.856C540.281 101.624 540.125 102.572 540.125 103.7C540.125 104.828 540.281 105.782 540.593 106.562C540.905 107.33 541.343 107.918 541.907 108.326C542.471 108.722 543.113 108.92 543.833 108.92ZM555.751 110.108C554.779 110.108 553.915 109.856 553.159 109.352C552.403 108.836 551.809 108.104 551.377 107.156C550.945 106.196 550.729 105.044 550.729 103.7C550.729 102.356 550.945 101.21 551.377 100.262C551.809 99.302 552.403 98.57 553.159 98.066C553.915 97.55 554.779 97.292 555.751 97.292C556.723 97.292 557.587 97.55 558.343 98.066C559.099 98.57 559.693 99.302 560.125 100.262C560.569 101.21 560.791 102.356 560.791 103.7C560.791 105.044 560.569 106.196 560.125 107.156C559.693 108.104 559.099 108.836 558.343 109.352C557.587 109.856 556.723 110.108 555.751 110.108ZM555.751 108.92C556.495 108.92 557.143 108.722 557.695 108.326C558.247 107.918 558.679 107.33 558.991 106.562C559.303 105.782 559.459 104.828 559.459 103.7C559.459 102.572 559.303 101.624 558.991 100.856C558.679 100.076 558.247 99.488 557.695 99.092C557.143 98.684 556.495 98.48 555.751 98.48C555.031 98.48 554.389 98.684 553.825 99.092C553.261 99.488 552.823 100.076 552.511 100.856C552.199 101.624 552.043 102.572 552.043 103.7C552.043 104.828 552.199 105.782 552.511 106.562C552.823 107.33 553.261 107.918 553.825 108.326C554.389 108.722 555.031 108.92 555.751 108.92ZM567.669 110.108C566.697 110.108 565.833 109.856 565.077 109.352C564.321 108.836 563.727 108.104 563.295 107.156C562.863 106.196 562.647 105.044 562.647 103.7C562.647 102.356 562.863 101.21 563.295 100.262C563.727 99.302 564.321 98.57 565.077 98.066C565.833 97.55 566.697 97.292 567.669 97.292C568.641 97.292 569.505 97.55 570.261 98.066C571.017 98.57 571.611 99.302 572.043 100.262C572.487 101.21 572.709 102.356 572.709 103.7C572.709 105.044 572.487 106.196 572.043 107.156C571.611 108.104 571.017 108.836 570.261 109.352C569.505 109.856 568.641 110.108 567.669 110.108ZM567.669 108.92C568.413 108.92 569.061 108.722 569.613 108.326C570.165 107.918 570.597 107.33 570.909 106.562C571.221 105.782 571.377 104.828 571.377 103.7C571.377 102.572 571.221 101.624 570.909 100.856C570.597 100.076 570.165 99.488 569.613 99.092C569.061 98.684 568.413 98.48 567.669 98.48C566.949 98.48 566.307 98.684 565.743 99.092C565.179 99.488 564.741 100.076 564.429 100.856C564.117 101.624 563.961 102.572 563.961 103.7C563.961 104.828 564.117 105.782 564.429 106.562C564.741 107.33 565.179 107.918 565.743 108.326C566.307 108.722 566.949 108.92 567.669 108.92Z" fill="black"/>
<path d="M52.1454 110V109.082L57.3834 103.952C57.8634 103.484 58.2234 103.076 58.4634 102.728C58.7034 102.368 58.8654 102.032 58.9494 101.72C59.0334 101.408 59.0754 101.114 59.0754 100.838C59.0754 100.106 58.8234 99.53 58.3194 99.11C57.8274 98.69 57.0954 98.48 56.1234 98.48C55.3794 98.48 54.7194 98.594 54.1434 98.822C53.5794 99.05 53.0934 99.404 52.6854 99.884L51.7674 99.092C52.2594 98.516 52.8894 98.072 53.6574 97.76C54.4254 97.448 55.2834 97.292 56.2314 97.292C57.0834 97.292 57.8214 97.43 58.4454 97.706C59.0694 97.97 59.5494 98.36 59.8854 98.876C60.2334 99.392 60.4074 99.998 60.4074 100.694C60.4074 101.102 60.3474 101.504 60.2274 101.9C60.1194 102.296 59.9154 102.716 59.6154 103.16C59.3274 103.592 58.9014 104.084 58.3374 104.636L53.5314 109.352L53.1714 108.848H60.9834V110H52.1454ZM67.5967 110.108C66.6247 110.108 65.7607 109.856 65.0047 109.352C64.2487 108.836 63.6547 108.104 63.2227 107.156C62.7907 106.196 62.5747 105.044 62.5747 103.7C62.5747 102.356 62.7907 101.21 63.2227 100.262C63.6547 99.302 64.2487 98.57 65.0047 98.066C65.7607 97.55 66.6247 97.292 67.5967 97.292C68.5687 97.292 69.4327 97.55 70.1887 98.066C70.9447 98.57 71.5387 99.302 71.9707 100.262C72.4147 101.21 72.6367 102.356 72.6367 103.7C72.6367 105.044 72.4147 106.196 71.9707 107.156C71.5387 108.104 70.9447 108.836 70.1887 109.352C69.4327 109.856 68.5687 110.108 67.5967 110.108ZM67.5967 108.92C68.3407 108.92 68.9887 108.722 69.5407 108.326C70.0927 107.918 70.5247 107.33 70.8367 106.562C71.1487 105.782 71.3047 104.828 71.3047 103.7C71.3047 102.572 71.1487 101.624 70.8367 100.856C70.5247 100.076 70.0927 99.488 69.5407 99.092C68.9887 98.684 68.3407 98.48 67.5967 98.48C66.8767 98.48 66.2347 98.684 65.6707 99.092C65.1067 99.488 64.6687 100.076 64.3567 100.856C64.0447 101.624 63.8887 102.572 63.8887 103.7C63.8887 104.828 64.0447 105.782 64.3567 106.562C64.6687 107.33 65.1067 107.918 65.6707 108.326C66.2347 108.722 66.8767 108.92 67.5967 108.92Z" fill="black"/>
</svg>
