<svg width="18" height="18" viewBox="0 0 18 18" fill="none" xmlns="http://www.w3.org/2000/svg">
<path d="M16.842 8.6513L9.34199 1.1513C9.02951 0.841368 8.60711 0.667618 8.16699 0.667969H2.33366C1.89163 0.667969 1.46771 0.843564 1.15515 1.15612C0.842587 1.46869 0.666993 1.89261 0.666993 2.33464V8.16797C0.666818 8.3879 0.710173 8.60568 0.794557 8.80878C0.878941 9.01187 1.00269 9.19625 1.15866 9.3513L8.65866 16.8513C8.97115 17.1612 9.39354 17.335 9.83366 17.3346C10.275 17.3328 10.6975 17.156 11.0087 16.843L16.842 11.0096C17.155 10.6985 17.3318 10.276 17.3337 9.83464C17.3338 9.61471 17.2905 9.39692 17.2061 9.19383C17.1217 8.99074 16.998 8.80635 16.842 8.6513ZM9.83366 15.668L2.33366 8.16797V2.33464H8.16699L15.667 9.83464M4.41699 3.16797C4.66422 3.16797 4.90589 3.24128 5.11146 3.37863C5.31702 3.51598 5.47723 3.71121 5.57184 3.93962C5.66645 4.16802 5.69121 4.41936 5.64297 4.66183C5.59474 4.90431 5.47569 5.12704 5.30088 5.30185C5.12606 5.47667 4.90333 5.59572 4.66086 5.64395C4.41838 5.69218 4.16705 5.66743 3.93864 5.57282C3.71023 5.47821 3.51501 5.31799 3.37766 5.11243C3.2403 4.90687 3.16699 4.6652 3.16699 4.41797C3.16699 4.08645 3.29869 3.76851 3.53311 3.53409C3.76753 3.29967 4.08547 3.16797 4.41699 3.16797Z" fill="#F8863C"/>
</svg>
