<svg width="39" height="39" viewBox="0 0 39 39" fill="none" xmlns="http://www.w3.org/2000/svg">
<path d="M19.7502 17.4355L13.1441 8.19189H9.62061L17.8039 19.6415L18.834 21.0818L25.8385 30.8905H29.3619L20.7759 18.8758L19.7502 17.4355Z" fill="black"/>
<path d="M34.3847 1.625H4.61534C2.96376 1.625 1.625 2.96376 1.625 4.61534V34.3847C1.625 36.0362 2.96376 37.375 4.61534 37.375H34.3847C36.0362 37.375 37.375 36.0362 37.375 34.3847V4.61534C37.375 2.96376 36.0362 1.625 34.3847 1.625ZM24.7574 32.5L17.6683 22.4039L8.79359 32.5H6.5L16.6512 20.9549L6.5 6.5H14.2426L20.954 16.0582L29.3631 6.5H31.6566L21.9765 17.5104L32.5 32.5H24.7574Z" fill="black"/>
</svg>
